<?xml version="1.0" encoding="UTF-8"?>
<svg version="1.1" xmlns="http://www.w3.org/2000/svg" width="384" height="384">
<path d="M0 0 C1.06476563 0.00128906 2.12953125 0.00257812 3.2265625 0.00390625 C16.16407621 1.7856234 26.95083948 16.81188641 35.86328125 25.65234375 C36.48775839 26.27149721 37.11223553 26.89065067 37.75563622 27.52856636 C41.05191854 30.7983508 44.34467261 34.0716459 47.63500977 37.34741211 C50.33872816 40.03774455 53.04955323 42.72059627 55.7668457 45.3972168 C59.07695628 48.65782638 62.37444915 51.93071274 65.66344261 55.21261787 C66.9082135 56.45071901 68.15720068 57.6845975 69.41063881 58.91392326 C83.89410096 73.13418422 83.89410096 73.13418422 86.00390625 83.5390625 C85.81756628 90.61998137 84.672145 95.92940023 79.7265625 101.19140625 C75.02388572 105.45256534 70.63863707 107.7130069 64.1875 107.875 C63.32769531 107.91496094 62.46789062 107.95492187 61.58203125 107.99609375 C49.90643253 105.96246328 42.58613481 97.24882887 34.75 89.125 C33.54415134 87.89402273 32.33712834 86.66419468 31.12890625 85.43554688 C28.19723169 82.44927373 25.28188218 79.44790362 22.375 76.4375 C22.37478263 77.05156594 22.37456526 77.66563187 22.37434131 78.29830587 C22.36082034 114.70695492 22.32131415 151.11548984 22.24814438 187.52406963 C22.23937781 191.89739371 22.23082797 196.2707182 22.22241211 200.64404297 C22.22073305 201.51467938 22.21905398 202.38531579 22.21732404 203.28233512 C22.19066691 217.37261315 22.18155988 231.46285051 22.17895857 245.55315118 C22.17589724 260.015155 22.15392969 274.47704136 22.11447543 288.93899214 C22.09073125 297.86013191 22.08166784 306.78103706 22.09148689 315.70220406 C22.09680979 321.82291435 22.08373932 327.94341473 22.0563371 334.06406526 C22.04107497 337.59347062 22.03379623 341.12240611 22.04840279 344.65182495 C22.0640522 348.48465975 22.04090346 352.31671973 22.01423645 356.14950562 C22.02490971 357.2565341 22.03558297 358.36356259 22.04657966 359.5041374 C21.95260218 366.75639566 20.55377478 372.41370743 16.375 378.4375 C10.23269287 384.29219089 4.14255798 384.91579775 -4.03515625 384.83984375 C-10.14614692 384.15493402 -14.01526413 381.5921823 -17.88815612 376.91058064 C-22.22076512 370.85713478 -22.33333846 365.55666156 -22.26423645 358.27612305 C-22.27259213 357.0646397 -22.2809478 355.85315636 -22.28955668 354.6049614 C-22.30765227 351.25908726 -22.30353363 347.91459767 -22.2898711 344.56879306 C-22.28058284 340.95466129 -22.30016977 337.34066989 -22.31619263 333.72657776 C-22.34000276 327.47061986 -22.34564892 321.21485894 -22.33884621 314.9588623 C-22.32903719 305.91386432 -22.34679564 296.8690844 -22.37121352 287.82412171 C-22.41008723 273.14820522 -22.42676512 258.47235118 -22.42944336 243.79638672 C-22.43209215 229.54277341 -22.44522 215.28923307 -22.47241211 201.03564453 C-22.47408549 200.15658262 -22.47575887 199.27752072 -22.47748295 198.37182057 C-22.48594262 193.96168428 -22.494608 189.55154842 -22.50337565 185.14141273 C-22.57580925 148.57345272 -22.6122037 112.00552709 -22.625 75.4375 C-23.46683838 76.30028564 -24.30867676 77.16307129 -25.17602539 78.05200195 C-28.31721465 81.26586968 -31.47185167 84.46625326 -34.63061523 87.6628418 C-35.99301656 89.04529509 -37.35179839 90.4313255 -38.70678711 91.82104492 C-40.66087552 93.82393173 -42.62784048 95.81337463 -44.59765625 97.80078125 C-45.19586685 98.41963699 -45.79407745 99.03849274 -46.41041565 99.67610168 C-51.48090322 104.74923016 -56.5219588 107.84747826 -63.9375 107.9375 C-70.65613241 107.72494354 -76.62316851 105.59114825 -81.32421875 100.65234375 C-84.85544373 95.88670774 -85.80803472 92.06230946 -85.9375 86.25 C-85.97488281 85.16332031 -86.01226562 84.07664062 -86.05078125 82.95703125 C-85.10368325 75.12826704 -80.59922403 69.82051984 -75.14746094 64.44238281 C-74.50623795 63.79415054 -73.86501495 63.14591827 -73.20436096 62.4780426 C-71.09925851 60.3554528 -68.98000277 58.24769532 -66.859375 56.140625 C-65.38151577 54.66006822 -63.9042505 53.17891835 -62.42755127 51.69720459 C-59.3372284 48.60099915 -56.23982461 45.51210636 -53.13720703 42.42822266 C-49.17158457 38.4853882 -45.22419249 34.52486648 -41.28194809 30.55867386 C-38.23676165 27.49899628 -35.1820662 24.44895534 -32.12445831 21.40169525 C-30.66555854 19.94545357 -29.20959593 18.48626294 -27.75670624 17.02402496 C-25.72073197 14.97783108 -23.67226409 12.94499628 -21.62011719 10.91503906 C-21.02866409 10.31548904 -20.437211 9.71593903 -19.82783508 9.09822083 C-14.08483235 3.46906873 -8.24252828 -0.1504111 0 0 Z " fill="#000000" transform="translate(298.625,-0.4375)"/>
<path d="M0 0 C1.19163757 -0.00708481 2.38327515 -0.01416962 3.61102295 -0.02146912 C4.91502045 -0.0189917 6.21901794 -0.01651428 7.56253052 -0.01396179 C8.95238519 -0.01830995 10.34223747 -0.02349345 11.73208618 -0.02944946 C15.50488614 -0.04284074 19.27758593 -0.04341792 23.05040503 -0.04088616 C26.2014446 -0.03981637 29.35246392 -0.04470013 32.50349915 -0.04949158 C39.93888179 -0.06058757 47.37421391 -0.0610239 54.80960083 -0.05497742 C62.47586703 -0.04893893 70.14194963 -0.06124518 77.8081845 -0.08254749 C84.39345432 -0.10017214 90.97866575 -0.10616342 97.56395829 -0.10290974 C101.4955387 -0.10109785 105.42698819 -0.10372349 109.35854721 -0.11762428 C113.0571315 -0.13021185 116.75543004 -0.12824993 120.45401001 -0.11521339 C122.45431261 -0.11172502 124.45462396 -0.12301923 126.45489502 -0.13478088 C128.25081085 -0.12425941 128.25081085 -0.12425941 130.08300781 -0.11352539 C131.11943861 -0.11369313 132.15586941 -0.11386087 133.2237072 -0.1140337 C139.24156334 0.65175241 143.32995501 3.71506577 147.16848755 8.26069641 C150.79200586 13.44220956 151.62435237 18.09747664 151.69973755 24.35444641 C150.09295077 33.14451527 144.40033182 38.58719254 138.26907349 44.61421204 C137.37116089 45.51270874 136.47324829 46.41120544 135.54812622 47.33692932 C133.10276735 49.783429 130.64533395 52.21745641 128.1854353 54.64932442 C125.61043263 57.19920709 123.04686268 59.76053306 120.48202515 62.32063293 C115.63107761 67.15918171 110.77003073 71.98744915 105.90521264 76.81204748 C100.36404168 82.30840395 94.8343162 87.81621488 89.30549192 93.32498646 C77.93911938 104.64962497 66.55855951 115.95989345 55.16848755 127.26069641 C56.6706633 127.26949577 56.6706633 127.26949577 58.20318604 127.2784729 C67.64923861 127.3357307 77.09506165 127.40850837 86.5408802 127.49641132 C91.39687561 127.54110438 96.25278732 127.58036291 101.10891724 127.60713196 C105.79694598 127.63317548 110.48465247 127.67358543 115.17248154 127.72388268 C116.95935935 127.74054428 118.74629289 127.75206296 120.53323746 127.75831032 C123.03976325 127.76795914 125.54546596 127.79602716 128.05178833 127.82832336 C128.7876265 127.82688828 129.52346466 127.82545319 130.28160095 127.82397461 C136.31357627 127.93361566 140.20255299 129.62241761 144.79348755 133.44819641 C149.87602513 139.46699092 151.88861115 144.626846 151.5473938 152.58491516 C150.57799546 159.43066632 147.26698606 163.69860252 142.0473938 168.03413391 C137.9057947 170.73779736 134.26443275 171.51219993 129.35752869 171.53485107 C128.19553955 171.5448262 127.03355042 171.55480133 125.83634949 171.56507874 C124.57028366 171.56574341 123.30421783 171.56640808 121.99978638 171.5670929 C120.64582871 171.57471901 119.29187535 171.58314728 117.93792725 171.59231567 C114.26617296 171.61422773 110.59450195 171.62305553 106.92268968 171.62814212 C104.62517902 171.6317907 102.32769 171.63803347 100.03018761 171.64514351 C92.00458193 171.6696301 83.97904077 171.68268743 75.95339966 171.68623352 C68.48987371 171.68986444 61.02676008 171.7197297 53.56336004 171.7616381 C47.14275969 171.79641806 40.72229543 171.81178332 34.30160159 171.81247956 C30.47262682 171.81326999 26.64407195 171.82189958 22.81519508 171.85047722 C19.20919235 171.87678963 15.60395361 171.87879101 11.9978981 171.86282158 C10.05797239 171.86016281 8.11806067 171.88210265 6.17826843 171.90501404 C-1.47948141 171.84144098 -7.49607864 170.77806887 -13.83151245 166.26069641 C-18.48104341 161.36500263 -19.99600882 156.71778034 -20.14401245 150.07319641 C-20.20008667 148.44317688 -20.20008667 148.44317688 -20.2572937 146.78022766 C-19.15487448 137.66756973 -13.28086262 132.14837991 -7.02389526 125.99897766 C-5.69165672 124.66586296 -5.69165672 124.66586296 -4.33250427 123.30581665 C-1.91222994 120.88784021 0.51653016 118.47904481 2.94961071 116.0739975 C5.4965872 113.55214333 8.03212882 111.01884355 10.56893921 108.48677063 C15.36676294 103.70134498 20.17468487 98.92620155 24.98637986 94.15472794 C30.46709339 88.71883102 35.93635964 83.27147772 41.40472555 77.82316399 C52.64668322 66.62293882 63.90282803 55.43708405 75.16848755 44.26069641 C74.20097565 44.25927139 73.23346375 44.25784637 72.2366333 44.25637817 C63.08607905 44.23965564 53.93596652 44.1967223 44.78564644 44.12860584 C40.08214152 44.0944216 35.37895847 44.06923925 30.67532349 44.06513977 C26.1297779 44.06083836 21.58495732 44.03222409 17.03963852 43.98726463 C15.31189076 43.97434822 13.58405598 43.96996104 11.85626602 43.97454262 C-6.37582676 44.01160338 -6.37582676 44.01160338 -13.83151245 38.26069641 C-19.70284229 32.01550733 -20.23885846 26.05080849 -20.1791687 17.78804016 C-19.55873273 11.49305493 -16.78378751 8.07012208 -12.26901245 3.88569641 C-7.9680117 1.01836258 -5.23704547 0.01038063 0 0 Z " fill="#000000" transform="translate(19.831512451171875,212.7393035888672)"/>
<path d="M0 0 C8.35948789 5.10231217 12.12419576 13.60636576 16.31958008 22.11816406 C16.95837551 23.39552785 17.59804849 24.6724531 18.23852539 25.94897461 C19.96417836 29.3946057 21.67743127 32.84626569 23.38832307 36.29924488 C25.18393229 39.91812519 26.99065309 43.53145058 28.79606628 47.14544678 C31.82272451 53.2079456 34.84204245 59.27405107 37.85620117 65.34277344 C42.10854556 73.90441248 46.37476783 82.45908082 50.64346087 91.01257753 C53.6014461 96.94099645 56.55613943 102.87105649 59.51019835 108.80143261 C60.22614404 110.23868546 60.94217976 111.67589347 61.65830445 113.11305714 C63.69737223 117.20548818 65.7343815 121.29893033 67.76805878 125.39404297 C68.3845739 126.63479571 69.00175439 127.87521809 69.61964226 129.11528778 C70.46161277 130.80544494 71.30086465 132.4969556 72.13996887 134.1885376 C72.61058652 135.13534519 73.08120417 136.08215279 73.56608295 137.05765152 C76.46488125 143.2094224 76.86435488 149.69584032 74.81640625 156.20703125 C72.13420647 162.07269437 69.26586367 165.23510604 63.6875 168.4375 C57.4037238 170.53209207 49.37809057 170.6333848 43.25 167.9375 C36.30231917 163.58477978 32.5780485 155.80429885 29.07495117 148.65063477 C28.65627777 147.81226578 28.23760437 146.97389679 27.8062439 146.11012268 C26.44011795 143.37005906 25.08531682 140.62456119 23.73046875 137.87890625 C22.77812967 135.96421608 21.82501793 134.04991004 20.87117004 132.13597107 C18.37400948 127.12080487 15.88616315 122.10107843 13.40063477 117.08013916 C9.40745415 109.01821487 5.39907548 100.96383054 1.3925724 92.90852165 C-0.00642944 90.09277603 -1.40206836 87.2753844 -2.79707336 84.45765686 C-3.64698657 82.74462075 -4.49693477 81.031602 -5.34692383 79.31860352 C-5.93051414 78.1366037 -5.93051414 78.1366037 -6.52589417 76.9307251 C-8.07850653 73.45510582 -8.07850653 73.45510582 -10.3125 70.4375 C-10.86516037 71.5539238 -11.41782074 72.6703476 -11.98722839 73.82060242 C-17.1993903 84.34632878 -22.42213293 94.86674489 -27.65525341 105.38206768 C-30.34524721 110.78813704 -33.03149213 116.19600175 -35.70922852 121.6081543 C-38.29400868 126.8320809 -40.88855787 132.05104696 -43.48992348 137.26673317 C-44.4801743 139.25646605 -45.46690547 141.24795464 -46.45003319 143.24121666 C-47.8287212 146.03493976 -49.21984474 148.82213179 -50.61401367 151.6081543 C-51.01682053 152.43174438 -51.41962738 153.25533447 -51.8346405 154.10388184 C-55.26092622 160.8953655 -59.85805386 166.95268462 -67.3125 169.4375 C-74.99342686 170.07845286 -81.99630918 170.30186497 -88.3125 165.4375 C-93.16308416 160.89785072 -95.59223048 155.65439406 -96.125 149.0625 C-95.92841958 142.18328397 -93.63239972 137.19249792 -90.57202148 131.09423828 C-90.08158324 130.09395159 -89.591145 129.09366489 -89.08584499 128.06306648 C-87.50613604 124.84877249 -85.90988822 121.64303893 -84.3125 118.4375 C-83.28244212 116.35066067 -82.25323275 114.26340231 -81.22488403 112.17572021 C-77.95123941 105.54265602 -74.65131755 98.92284143 -71.34765625 92.3046875 C-70.74992586 91.1064782 -70.15223901 89.90824718 -69.55459404 88.70999527 C-66.75644918 83.10017332 -63.95679204 77.49111026 -61.15480143 71.88320816 C-57.94647358 65.46203261 -54.74346916 59.03823709 -51.54481608 52.61223686 C-49.04688252 47.59475322 -46.54434159 42.57958508 -44.03829283 37.56614983 C-42.55095497 34.590431 -41.06613197 31.61350369 -39.5849781 28.63470078 C-37.94257916 25.33287979 -36.29268022 22.03491307 -34.64086914 18.73779297 C-34.15824112 17.76332214 -33.6756131 16.78885132 -33.17835999 15.78485107 C-26.60782296 2.72466542 -15.22273045 -6.66900572 0 0 Z " fill="#000000" transform="translate(95.3125,1.5625)"/>
</svg>
