<?xml version="1.0" encoding="UTF-8"?>
<svg version="1.1" xmlns="http://www.w3.org/2000/svg" width="384" height="384">
<path d="M0 0 C5.24166856 3.26167909 8.74783998 7.28288734 11.25390625 12.94140625 C11.96130491 17.00150866 11.93218482 20.98933279 11.8931427 25.1027832 C11.90149838 26.31426655 11.90985405 27.52574989 11.91846293 28.77394485 C11.93655852 32.11981899 11.93243988 35.46430858 11.91877735 38.81011319 C11.90948909 42.42424496 11.92907602 46.03823636 11.94509888 49.65232849 C11.96890901 55.90828639 11.97455517 62.16404731 11.96775246 68.42004395 C11.95794344 77.46504193 11.97570189 86.50982185 12.00011977 95.55478454 C12.03899348 110.23070103 12.05567137 124.90655507 12.05834961 139.58251953 C12.0609984 153.83613284 12.07412625 168.08967318 12.10131836 182.34326172 C12.10299174 183.22232363 12.10466512 184.10138553 12.1063892 185.00708568 C12.11484887 189.41722197 12.12351425 193.82735783 12.1322819 198.23749352 C12.2047155 234.80545353 12.24110995 271.37337916 12.25390625 307.94140625 C13.51666382 306.64722778 13.51666382 306.64722778 14.80493164 305.3269043 C17.9461209 302.11303657 21.10075792 298.91265299 24.25952148 295.71606445 C25.62192281 294.33361116 26.98070464 292.94758075 28.33569336 291.55786133 C30.28978177 289.55497452 32.25674673 287.56553162 34.2265625 285.578125 C34.8247731 284.95926926 35.4229837 284.34041351 36.0393219 283.70280457 C41.10980947 278.62967609 46.15086505 275.53142799 53.56640625 275.44140625 C60.28503866 275.65396271 66.25207476 277.787758 70.953125 282.7265625 C74.48434998 287.49219851 75.43694097 291.31659679 75.56640625 297.12890625 C75.62248047 298.75892578 75.62248047 298.75892578 75.6796875 300.421875 C74.7325895 308.25063921 70.22813028 313.55838641 64.77636719 318.93652344 C64.1351442 319.58475571 63.4939212 320.23298798 62.83326721 320.90086365 C60.72816476 323.02345345 58.60890902 325.13121093 56.48828125 327.23828125 C55.01042202 328.71883803 53.53315675 330.1999879 52.05645752 331.68170166 C48.96613465 334.7779071 45.86873086 337.86679989 42.76611328 340.95068359 C38.80049082 344.89351805 34.85309874 348.85403977 30.91085434 352.82023239 C27.8656679 355.87990997 24.81097245 358.92995091 21.75336456 361.977211 C20.29446479 363.43345268 18.83850218 364.89264331 17.38561249 366.35488129 C15.34963822 368.40107517 13.30117034 370.43390997 11.24902344 372.46386719 C10.3618438 373.36319221 10.3618438 373.36319221 9.45674133 374.28068542 C4.63686403 379.00501234 -0.38389859 382.45284929 -7.16015625 383.4375 C-8.21976562 383.41816406 -9.279375 383.39882813 -10.37109375 383.37890625 C-11.43585938 383.37761719 -12.500625 383.37632812 -13.59765625 383.375 C-26.53516996 381.59328285 -37.32193323 366.56701984 -46.234375 357.7265625 C-46.85885214 357.10740904 -47.48332928 356.48825558 -48.12672997 355.85033989 C-51.42301229 352.58055545 -54.71576636 349.30726035 -58.00610352 346.03149414 C-60.70982191 343.3411617 -63.42064698 340.65830998 -66.13793945 337.98168945 C-69.44805003 334.72107987 -72.7455429 331.44819351 -76.03453636 328.16628838 C-77.27930725 326.92818724 -78.52829443 325.69430875 -79.78173256 324.46498299 C-94.26519471 310.24472203 -94.26519471 310.24472203 -96.375 299.83984375 C-96.18866003 292.75892488 -95.04323875 287.44950602 -90.09765625 282.1875 C-85.39497947 277.92634091 -81.00973082 275.66589935 -74.55859375 275.50390625 C-73.69878906 275.46394531 -72.83898437 275.42398437 -71.953125 275.3828125 C-60.27752628 277.41644297 -52.95722856 286.13007738 -45.12109375 294.25390625 C-43.91524509 295.48488352 -42.70822209 296.71471157 -41.5 297.94335938 C-38.56832544 300.92963252 -35.65297593 303.93100263 -32.74609375 306.94140625 C-32.74587638 306.32734031 -32.74565901 305.71327438 -32.74543506 305.08060038 C-32.73191409 268.67195133 -32.6924079 232.26341641 -32.61923813 195.85483662 C-32.61047156 191.48151254 -32.60192172 187.10818805 -32.59350586 182.73486328 C-32.5918268 181.86422687 -32.59014773 180.99359046 -32.58841779 180.09657113 C-32.56176066 166.0062931 -32.55265363 151.91605574 -32.55005232 137.82575507 C-32.54699099 123.36375125 -32.52502344 108.90186489 -32.48556918 94.43991411 C-32.461825 85.51877434 -32.45276159 76.59786919 -32.46258064 67.67670219 C-32.46790354 61.5559919 -32.45483307 55.43549152 -32.42743085 49.31484099 C-32.41216872 45.78543563 -32.40488998 42.25650014 -32.41949654 38.7270813 C-32.43514595 34.8942465 -32.41199721 31.06218652 -32.3853302 27.22940063 C-32.39600346 26.12237215 -32.40667672 25.01534366 -32.41767341 23.87476885 C-32.32369593 16.62251059 -30.92486853 10.96519882 -26.74609375 4.94140625 C-19.6756836 -1.79792883 -9.14049583 -3.52357663 0 0 Z " fill="#000000" transform="translate(308.74609375,1.05859375)"/>
<path d="M0 0 C1.19163757 -0.00708481 2.38327515 -0.01416962 3.61102295 -0.02146912 C4.91502045 -0.0189917 6.21901794 -0.01651428 7.56253052 -0.01396179 C8.95238519 -0.01830995 10.34223747 -0.02349345 11.73208618 -0.02944946 C15.50488614 -0.04284074 19.27758593 -0.04341792 23.05040503 -0.04088616 C26.2014446 -0.03981637 29.35246392 -0.04470013 32.50349915 -0.04949158 C39.93888179 -0.06058757 47.37421391 -0.0610239 54.80960083 -0.05497742 C62.47586703 -0.04893893 70.14194963 -0.06124518 77.8081845 -0.08254749 C84.39345432 -0.10017214 90.97866575 -0.10616342 97.56395829 -0.10290974 C101.4955387 -0.10109785 105.42698819 -0.10372349 109.35854721 -0.11762428 C113.0571315 -0.13021185 116.75543004 -0.12824993 120.45401001 -0.11521339 C122.45431261 -0.11172502 124.45462396 -0.12301923 126.45489502 -0.13478088 C128.25081085 -0.12425941 128.25081085 -0.12425941 130.08300781 -0.11352539 C131.11943861 -0.11369313 132.15586941 -0.11386087 133.2237072 -0.1140337 C139.24156334 0.65175241 143.32995501 3.71506577 147.16848755 8.26069641 C150.79200586 13.44220956 151.62435237 18.09747664 151.69973755 24.35444641 C150.09295077 33.14451527 144.40033182 38.58719254 138.26907349 44.61421204 C137.37116089 45.51270874 136.47324829 46.41120544 135.54812622 47.33692932 C133.10276735 49.783429 130.64533395 52.21745641 128.1854353 54.64932442 C125.61043263 57.19920709 123.04686268 59.76053306 120.48202515 62.32063293 C115.63107761 67.15918171 110.77003073 71.98744915 105.90521264 76.81204748 C100.36404168 82.30840395 94.8343162 87.81621488 89.30549192 93.32498646 C77.93911938 104.64962497 66.55855951 115.95989345 55.16848755 127.26069641 C56.6706633 127.26949577 56.6706633 127.26949577 58.20318604 127.2784729 C67.64923861 127.3357307 77.09506165 127.40850837 86.5408802 127.49641132 C91.39687561 127.54110438 96.25278732 127.58036291 101.10891724 127.60713196 C105.79694598 127.63317548 110.48465247 127.67358543 115.17248154 127.72388268 C116.95935935 127.74054428 118.74629289 127.75206296 120.53323746 127.75831032 C123.03976325 127.76795914 125.54546596 127.79602716 128.05178833 127.82832336 C128.7876265 127.82688828 129.52346466 127.82545319 130.28160095 127.82397461 C136.31357627 127.93361566 140.20255299 129.62241761 144.79348755 133.44819641 C149.87602513 139.46699092 151.88861115 144.626846 151.5473938 152.58491516 C150.57799546 159.43066632 147.26698606 163.69860252 142.0473938 168.03413391 C137.9057947 170.73779736 134.26443275 171.51219993 129.35752869 171.53485107 C128.19553955 171.5448262 127.03355042 171.55480133 125.83634949 171.56507874 C124.57028366 171.56574341 123.30421783 171.56640808 121.99978638 171.5670929 C120.64582871 171.57471901 119.29187535 171.58314728 117.93792725 171.59231567 C114.26617296 171.61422773 110.59450195 171.62305553 106.92268968 171.62814212 C104.62517902 171.6317907 102.32769 171.63803347 100.03018761 171.64514351 C92.00458193 171.6696301 83.97904077 171.68268743 75.95339966 171.68623352 C68.48987371 171.68986444 61.02676008 171.7197297 53.56336004 171.7616381 C47.14275969 171.79641806 40.72229543 171.81178332 34.30160159 171.81247956 C30.47262682 171.81326999 26.64407195 171.82189958 22.81519508 171.85047722 C19.20919235 171.87678963 15.60395361 171.87879101 11.9978981 171.86282158 C10.05797239 171.86016281 8.11806067 171.88210265 6.17826843 171.90501404 C-1.47948141 171.84144098 -7.49607864 170.77806887 -13.83151245 166.26069641 C-18.48104341 161.36500263 -19.99600882 156.71778034 -20.14401245 150.07319641 C-20.20008667 148.44317688 -20.20008667 148.44317688 -20.2572937 146.78022766 C-19.15487448 137.66756973 -13.28086262 132.14837991 -7.02389526 125.99897766 C-5.69165672 124.66586296 -5.69165672 124.66586296 -4.33250427 123.30581665 C-1.91222994 120.88784021 0.51653016 118.47904481 2.94961071 116.0739975 C5.4965872 113.55214333 8.03212882 111.01884355 10.56893921 108.48677063 C15.36676294 103.70134498 20.17468487 98.92620155 24.98637986 94.15472794 C30.46709339 88.71883102 35.93635964 83.27147772 41.40472555 77.82316399 C52.64668322 66.62293882 63.90282803 55.43708405 75.16848755 44.26069641 C74.20097565 44.25927139 73.23346375 44.25784637 72.2366333 44.25637817 C63.08607905 44.23965564 53.93596652 44.1967223 44.78564644 44.12860584 C40.08214152 44.0944216 35.37895847 44.06923925 30.67532349 44.06513977 C26.1297779 44.06083836 21.58495732 44.03222409 17.03963852 43.98726463 C15.31189076 43.97434822 13.58405598 43.96996104 11.85626602 43.97454262 C-6.37582676 44.01160338 -6.37582676 44.01160338 -13.83151245 38.26069641 C-19.70284229 32.01550733 -20.23885846 26.05080849 -20.1791687 17.78804016 C-19.55873273 11.49305493 -16.78378751 8.07012208 -12.26901245 3.88569641 C-7.9680117 1.01836258 -5.23704547 0.01038063 0 0 Z " fill="#000000" transform="translate(19.831512451171875,-0.2606964111328125)"/>
<path d="M0 0 C8.35948789 5.10231217 12.12419576 13.60636576 16.31958008 22.11816406 C16.95837551 23.39552785 17.59804849 24.6724531 18.23852539 25.94897461 C19.96417836 29.3946057 21.67743127 32.84626569 23.38832307 36.29924488 C25.18393229 39.91812519 26.99065309 43.53145058 28.79606628 47.14544678 C31.82272451 53.2079456 34.84204245 59.27405107 37.85620117 65.34277344 C42.10854556 73.90441248 46.37476783 82.45908082 50.64346087 91.01257753 C53.6014461 96.94099645 56.55613943 102.87105649 59.51019835 108.80143261 C60.22614404 110.23868546 60.94217976 111.67589347 61.65830445 113.11305714 C63.69737223 117.20548818 65.7343815 121.29893033 67.76805878 125.39404297 C68.3845739 126.63479571 69.00175439 127.87521809 69.61964226 129.11528778 C70.46161277 130.80544494 71.30086465 132.4969556 72.13996887 134.1885376 C72.61058652 135.13534519 73.08120417 136.08215279 73.56608295 137.05765152 C76.46488125 143.2094224 76.86435488 149.69584032 74.81640625 156.20703125 C72.13420647 162.07269437 69.26586367 165.23510604 63.6875 168.4375 C57.4037238 170.53209207 49.37809057 170.6333848 43.25 167.9375 C36.30231917 163.58477978 32.5780485 155.80429885 29.07495117 148.65063477 C28.65627777 147.81226578 28.23760437 146.97389679 27.8062439 146.11012268 C26.44011795 143.37005906 25.08531682 140.62456119 23.73046875 137.87890625 C22.77812967 135.96421608 21.82501793 134.04991004 20.87117004 132.13597107 C18.37400948 127.12080487 15.88616315 122.10107843 13.40063477 117.08013916 C9.40745415 109.01821487 5.39907548 100.96383054 1.3925724 92.90852165 C-0.00642944 90.09277603 -1.40206836 87.2753844 -2.79707336 84.45765686 C-3.64698657 82.74462075 -4.49693477 81.031602 -5.34692383 79.31860352 C-5.93051414 78.1366037 -5.93051414 78.1366037 -6.52589417 76.9307251 C-8.07850653 73.45510582 -8.07850653 73.45510582 -10.3125 70.4375 C-10.86516037 71.5539238 -11.41782074 72.6703476 -11.98722839 73.82060242 C-17.1993903 84.34632878 -22.42213293 94.86674489 -27.65525341 105.38206768 C-30.34524721 110.78813704 -33.03149213 116.19600175 -35.70922852 121.6081543 C-38.29400868 126.8320809 -40.88855787 132.05104696 -43.48992348 137.26673317 C-44.4801743 139.25646605 -45.46690547 141.24795464 -46.45003319 143.24121666 C-47.8287212 146.03493976 -49.21984474 148.82213179 -50.61401367 151.6081543 C-51.01682053 152.43174438 -51.41962738 153.25533447 -51.8346405 154.10388184 C-55.26092622 160.8953655 -59.85805386 166.95268462 -67.3125 169.4375 C-74.99342686 170.07845286 -81.99630918 170.30186497 -88.3125 165.4375 C-93.16308416 160.89785072 -95.59223048 155.65439406 -96.125 149.0625 C-95.92841958 142.18328397 -93.63239972 137.19249792 -90.57202148 131.09423828 C-90.08158324 130.09395159 -89.591145 129.09366489 -89.08584499 128.06306648 C-87.50613604 124.84877249 -85.90988822 121.64303893 -84.3125 118.4375 C-83.28244212 116.35066067 -82.25323275 114.26340231 -81.22488403 112.17572021 C-77.95123941 105.54265602 -74.65131755 98.92284143 -71.34765625 92.3046875 C-70.74992586 91.1064782 -70.15223901 89.90824718 -69.55459404 88.70999527 C-66.75644918 83.10017332 -63.95679204 77.49111026 -61.15480143 71.88320816 C-57.94647358 65.46203261 -54.74346916 59.03823709 -51.54481608 52.61223686 C-49.04688252 47.59475322 -46.54434159 42.57958508 -44.03829283 37.56614983 C-42.55095497 34.590431 -41.06613197 31.61350369 -39.5849781 28.63470078 C-37.94257916 25.33287979 -36.29268022 22.03491307 -34.64086914 18.73779297 C-34.15824112 17.76332214 -33.6756131 16.78885132 -33.17835999 15.78485107 C-26.60782296 2.72466542 -15.22273045 -6.66900572 0 0 Z " fill="#000000" transform="translate(95.3125,214.5625)"/>
</svg>
