<?xml version="1.0" encoding="UTF-8"?>
<svg version="1.1" xmlns="http://www.w3.org/2000/svg" width="384" height="384">
<path d="M0 0 C5.74841562 3.32865134 9.60440035 8.15992367 11.6875 14.4375 C12.05859375 16.98046875 12.05859375 16.98046875 12.125 19.625 C12.18494141 20.91470703 12.18494141 20.91470703 12.24609375 22.23046875 C10.21246328 33.90606747 1.49882887 41.22636519 -6.625 49.0625 C-7.85597727 50.26834866 -9.08580532 51.47537166 -10.31445312 52.68359375 C-13.30072627 55.61526831 -16.30209638 58.53061782 -19.3125 61.4375 C-18.39140109 61.43782605 -18.39140109 61.43782605 -17.45169413 61.43815869 C18.95695492 61.45167966 55.36548984 61.49118585 91.77406963 61.56435562 C96.14739371 61.57312219 100.5207182 61.58167203 104.89404297 61.59008789 C105.76467938 61.59176695 106.63531579 61.59344602 107.53233512 61.59517596 C121.62261315 61.62183309 135.71285051 61.63094012 149.80315118 61.63354143 C164.265155 61.63660276 178.72704136 61.65857031 193.18899214 61.69802457 C202.11013191 61.72176875 211.03103706 61.73083216 219.95220406 61.72101311 C226.07291435 61.71569021 232.19341473 61.72876068 238.31406526 61.7561629 C241.84347062 61.77142503 245.37240611 61.77870377 248.90182495 61.76409721 C252.73465975 61.7484478 256.56671973 61.77159654 260.39950562 61.79826355 C261.5065341 61.78759029 262.61356259 61.77691703 263.7541374 61.76592034 C271.00639566 61.85989782 276.66370743 63.25872522 282.6875 67.4375 C288.54219089 73.57980713 289.16579775 79.66994202 289.08984375 87.84765625 C288.40493402 93.95864692 285.8421823 97.82776413 281.16058064 101.70065612 C275.10713478 106.03326512 269.80666156 106.14583846 262.52612305 106.07673645 C261.3146397 106.08509213 260.10315636 106.0934478 258.8549614 106.10205668 C255.50908726 106.12015227 252.16459767 106.11603363 248.81879306 106.1023711 C245.20466129 106.09308284 241.59066989 106.11266977 237.97657776 106.12869263 C231.72061986 106.15250276 225.46485894 106.15814892 219.2088623 106.15134621 C210.16386432 106.14153719 201.1190844 106.15929564 192.07412171 106.18371352 C177.39820522 106.22258723 162.72235118 106.23926512 148.04638672 106.24194336 C133.79277341 106.24459215 119.53923307 106.25772 105.28564453 106.28491211 C104.40658262 106.28658549 103.52752072 106.28825887 102.62182057 106.28998295 C98.21168428 106.29844262 93.80154842 106.307108 89.39141273 106.31587565 C52.82345272 106.38830925 16.25552709 106.4247037 -20.3125 106.4375 C-19.01832153 107.70025757 -19.01832153 107.70025757 -17.69799805 108.98852539 C-14.48413032 112.12971465 -11.28374674 115.28435167 -8.0871582 118.44311523 C-6.70470491 119.80551656 -5.3186745 121.16429839 -3.92895508 122.51928711 C-1.92606827 124.47337552 0.06337463 126.44034048 2.05078125 128.41015625 C2.97906487 129.30747215 2.97906487 129.30747215 3.92610168 130.22291565 C8.99923016 135.29340322 12.09747826 140.3344588 12.1875 147.75 C11.97494354 154.46863241 9.84114825 160.43566851 4.90234375 165.13671875 C0.13670774 168.66794373 -3.68769054 169.62053472 -9.5 169.75 C-11.13001953 169.80607422 -11.13001953 169.80607422 -12.79296875 169.86328125 C-20.62173296 168.91618325 -25.92948016 164.41172403 -31.30761719 158.95996094 C-31.95584946 158.31873795 -32.60408173 157.67751495 -33.2719574 157.01686096 C-35.3945472 154.91175851 -37.50230468 152.79250277 -39.609375 150.671875 C-41.08993178 149.19401577 -42.57108165 147.7167505 -44.05279541 146.24005127 C-47.14900085 143.1497284 -50.23789364 140.05232461 -53.32177734 136.94970703 C-57.2646118 132.98408457 -61.22513352 129.03669249 -65.19132614 125.09444809 C-68.25100372 122.04926165 -71.30104466 118.9945662 -74.34830475 115.93695831 C-75.80454643 114.47805854 -77.26373706 113.02209593 -78.72597504 111.56920624 C-80.77216892 109.53323197 -82.80500372 107.48476409 -84.83496094 105.43261719 C-85.43451096 104.84116409 -86.03406097 104.249711 -86.65177917 103.64033508 C-91.37610609 98.82045778 -94.82394304 93.79969516 -95.80859375 87.0234375 C-95.77958984 85.43402344 -95.77958984 85.43402344 -95.75 83.8125 C-95.74871094 82.74773437 -95.74742188 81.68296875 -95.74609375 80.5859375 C-93.9643766 67.64842379 -78.93811359 56.86166052 -70.09765625 47.94921875 C-69.47850279 47.32474161 -68.85934933 46.70026447 -68.22143364 46.05686378 C-64.9516492 42.76058146 -61.6783541 39.46782739 -58.40258789 36.17749023 C-55.71225545 33.47377184 -53.02940373 30.76294677 -50.3527832 28.0456543 C-47.09217362 24.73554372 -43.81928726 21.43805085 -40.53738213 18.14905739 C-39.29928099 16.9042865 -38.0654025 15.65529932 -36.83607674 14.40186119 C-26.76813194 4.14756995 -15.34782514 -6.72380911 0 0 Z " fill="#000000" transform="translate(95.3125,107.5625)"/>
</svg>
