<?xml version="1.0" encoding="UTF-8"?>
<svg version="1.1" xmlns="http://www.w3.org/2000/svg" width="384" height="384">
<path d="M0 0 C83.49 0 166.98 0 253 0 C253 51.48 253 102.96 253 156 C252.34 156 251.68 156 251 156 C250.896875 156.556875 250.79375 157.11375 250.6875 157.6875 C248.94949581 163.53351409 245.63211611 166.87021969 240.43148994 169.78836823 C232.54293329 172.57375476 223.89384631 171.82827868 215.62866211 171.77636719 C213.45461474 171.78450524 211.28057565 171.79519272 209.10655212 171.80822754 C203.22222255 171.83550684 197.33852639 171.82500627 191.4541862 171.80595303 C185.28711326 171.79072669 179.12009333 171.80486005 172.95301819 171.81427002 C162.59903255 171.82517471 152.245304 171.81082863 141.89135742 171.78222656 C129.93052642 171.74956661 117.97030899 171.76015927 106.00949281 171.793185 C95.72807826 171.82043436 85.44684815 171.8242448 75.16540915 171.80855298 C69.02997473 171.79921174 62.89482852 171.79791641 56.75941277 171.81777191 C50.99136896 171.83513597 45.22411453 171.82302398 39.45615578 171.78840637 C37.34265324 171.78049002 35.22908398 171.78272204 33.11560822 171.79598236 C13.81357291 171.90589889 13.81357291 171.90589889 7.46000004 166.53544998 C6.73730002 165.77540224 6.73730002 165.77540224 6 165 C5.195625 164.154375 4.39125 163.30875 3.5625 162.4375 C0.5662431 157.76333924 -0.24948505 154.05701899 -0.24050903 148.514328 C-0.24326403 147.20597835 -0.24601902 145.89762869 -0.2488575 144.54963207 C-0.24176465 143.10103965 -0.23448886 141.65244811 -0.22705078 140.20385742 C-0.22643789 138.6513409 -0.22670546 137.09882383 -0.2277813 135.54630756 C-0.22823242 131.39245999 -0.21664902 127.23872788 -0.20256042 123.08490753 C-0.19116225 119.18571106 -0.19063373 115.28654253 -0.18920898 111.3873291 C-0.17871844 99.9873708 -0.1507961 88.58743394 -0.125 77.1875 C-0.08375 51.715625 -0.0425 26.24375 0 0 Z M40.39624023 38.80761719 C38.76299553 41.3721455 38.61390018 42.79320592 38.6015625 45.80859375 C38.59769531 46.72060547 38.59382813 47.63261719 38.58984375 48.57226562 C38.60144531 49.51779297 38.61304688 50.46332031 38.625 51.4375 C38.61339844 52.37916016 38.60179687 53.32082031 38.58984375 54.29101562 C38.59134942 61.17509168 38.59134942 61.17509168 42 67 C46.69741469 69.87969998 51.58438623 69.40623587 56.9375 69.4375 C57.92685547 69.47037109 58.91621094 69.50324219 59.93554688 69.53710938 C65.94727039 69.60338115 65.94727039 69.60338115 71.06640625 66.66015625 C75.04451051 61.18724917 75.36506676 58.26827395 75.375 51.6875 C75.41173828 50.42389648 75.41173828 50.42389648 75.44921875 49.13476562 C75.47511727 43.61406545 74.79845396 40.29825053 71 36 C66.53676455 33.25628969 62.15302737 33.66922819 57.0625 33.6875 C55.72155273 33.66333008 55.72155273 33.66333008 54.35351562 33.63867188 C48.37482029 33.63423335 44.54093563 34.13608046 40.39624023 38.80761719 Z M111 37 C108.0630907 41.6365943 108.63189472 46.62511979 108.625 51.9375 C108.60050781 52.92685547 108.57601562 53.91621094 108.55078125 54.93554688 C108.52353929 60.82854356 108.52353929 60.82854356 110.8984375 66.12890625 C115.35392098 70.09577723 120.10214912 69.22084696 125.8125 69.25 C127.31006836 69.2809375 127.31006836 69.2809375 128.83789062 69.3125 C135.99584092 69.48797818 135.99584092 69.48797818 142 66 C144.6844705 61.61019717 144.40267526 56.62428486 144.4375 51.625 C144.47037109 50.8 144.50324219 49.975 144.53710938 49.125 C144.59201477 42.83583689 143.21633306 39.69306969 139 35 C134.87580148 33.62526716 131.00748491 33.77608293 126.6875 33.75 C125.84509766 33.729375 125.00269531 33.70875 124.13476562 33.6875 C119.03161741 33.65558039 115.34285203 34.01050186 111 37 Z M179.39404297 38.80761719 C177.76352466 41.37189993 177.61389398 42.79472217 177.6015625 45.80859375 C177.59769531 46.72060547 177.59382812 47.63261719 177.58984375 48.57226562 C177.60144531 49.51779297 177.61304688 50.46332031 177.625 51.4375 C177.61339844 52.37916016 177.60179687 53.32082031 177.58984375 54.29101562 C177.59134942 61.17509168 177.59134942 61.17509168 181 67 C185.69741469 69.87969998 190.58438623 69.40623587 195.9375 69.4375 C196.92685547 69.47037109 197.91621094 69.50324219 198.93554688 69.53710938 C204.94727039 69.60338115 204.94727039 69.60338115 210.06640625 66.66015625 C213.73434425 61.61396276 214.36514269 58.38124815 214.375 52.25 C214.41173828 51.07050781 214.41173828 51.07050781 214.44921875 49.8671875 C214.47794201 44.10338642 213.48774709 40.64239374 210 36 C205.70756923 33.1772602 200.47949555 33.66843608 195.5 33.6875 C194.23736328 33.66333008 194.23736328 33.66333008 192.94921875 33.63867188 C187.13193454 33.63409134 183.42353781 34.27213834 179.39404297 38.80761719 Z M41 108 C41 108.66 41 109.32 41 110 C40.34 110 39.68 110 39 110 C39 117.26 39 124.52 39 132 C39.66 132 40.32 132 41 132 C41.33 133.32 41.66 134.64 42 136 C43.32 136.33 44.64 136.66 46 137 C46 137.66 46 138.32 46 139 C52.93 139 59.86 139 67 139 C67 138.34 67 137.68 67 137 C67.8971875 136.8453125 67.8971875 136.8453125 68.8125 136.6875 C71.33844795 135.89363064 72.34885407 135.04427591 74 133 C75.33370041 128.99889877 75.22335475 125.31496597 75.25 121.125 C75.270625 120.32191406 75.29125 119.51882812 75.3125 118.69140625 C75.34342228 113.99895069 75.14990566 110.75339225 72 107 C71.01 106.67 70.02 106.34 69 106 C69 105.34 69 104.68 69 104 C64.88087862 102.62695954 61.00345265 102.6966611 56.6875 102.625 C55.84509766 102.58761719 55.00269531 102.55023438 54.13476562 102.51171875 C48.00629296 102.42546972 45.18548989 103.45263251 41 108 Z M110 108 C108.07192315 111.85615369 108.72810627 116.57049833 108.6875 120.8125 C108.65849609 121.81087891 108.62949219 122.80925781 108.59960938 123.83789062 C108.56032798 128.37338124 108.54374294 131.20325259 110.83203125 135.19921875 C112.91490216 137.31947831 112.91490216 137.31947831 116 137 C116 137.66 116 138.32 116 139 C122.93 139 129.86 139 137 139 C137 138.34 137 137.68 137 137 C138.175625 136.6596875 138.175625 136.6596875 139.375 136.3125 C142.10572626 135.25247719 142.10572626 135.25247719 143.14453125 132.9765625 C144.29868908 128.96072566 144.32947066 125.220312 144.3125 121.0625 C144.32861328 120.27681641 144.34472656 119.49113281 144.36132812 118.68164062 C144.36546295 113.74052835 143.87308857 110.20009244 141 106 C136.62872577 102.09973264 131.62368359 102.48379845 126.0625 102.5 C125.18142578 102.47164063 124.30035156 102.44328125 123.39257812 102.4140625 C117.15373599 102.39536934 114.29200936 103.42553095 110 108 Z M179 108 C177.06881782 111.86236435 177.68465535 116.56341181 177.625 120.8125 C177.58761719 121.81087891 177.55023438 122.80925781 177.51171875 123.83789062 C177.417123 129.96010844 177.417123 129.96010844 180.3984375 135.19921875 C182.74674437 137.18971526 182.74674437 137.18971526 185 137 C185 137.66 185 138.32 185 139 C191.93 139 198.86 139 206 139 C206 138.34 206 137.68 206 137 C206.8971875 136.8453125 206.8971875 136.8453125 207.8125 136.6875 C210.33844795 135.89363064 211.34885407 135.04427591 213 133 C214.33370041 128.99889877 214.22335475 125.31496597 214.25 121.125 C214.270625 120.32191406 214.29125 119.51882812 214.3125 118.69140625 C214.34342228 113.99895069 214.14990566 110.75339225 211 107 C210.01 106.67 209.02 106.34 208 106 C208 105.34 208 104.68 208 104 C203.89828957 102.63276319 200.04775005 102.69673786 195.75 102.625 C194.91597656 102.58761719 194.08195312 102.55023438 193.22265625 102.51171875 C186.86298356 102.42186466 183.78121303 103.787979 179 108 Z " fill="#000000" transform="translate(0,93)"/>
<path d="M0 0 C5.24166856 3.26167909 8.74783998 7.28288734 11.25390625 12.94140625 C11.96130491 17.00150866 11.93218482 20.98933279 11.8931427 25.1027832 C11.90149838 26.31426655 11.90985405 27.52574989 11.91846293 28.77394485 C11.93655852 32.11981899 11.93243988 35.46430858 11.91877735 38.81011319 C11.90948909 42.42424496 11.92907602 46.03823636 11.94509888 49.65232849 C11.96890901 55.90828639 11.97455517 62.16404731 11.96775246 68.42004395 C11.95794344 77.46504193 11.97570189 86.50982185 12.00011977 95.55478454 C12.03899348 110.23070103 12.05567137 124.90655507 12.05834961 139.58251953 C12.0609984 153.83613284 12.07412625 168.08967318 12.10131836 182.34326172 C12.10299174 183.22232363 12.10466512 184.10138553 12.1063892 185.00708568 C12.11484887 189.41722197 12.12351425 193.82735783 12.1322819 198.23749352 C12.2047155 234.80545353 12.24110995 271.37337916 12.25390625 307.94140625 C13.51666382 306.64722778 13.51666382 306.64722778 14.80493164 305.3269043 C17.9461209 302.11303657 21.10075792 298.91265299 24.25952148 295.71606445 C25.62192281 294.33361116 26.98070464 292.94758075 28.33569336 291.55786133 C30.28978177 289.55497452 32.25674673 287.56553162 34.2265625 285.578125 C34.8247731 284.95926926 35.4229837 284.34041351 36.0393219 283.70280457 C41.10980947 278.62967609 46.15086505 275.53142799 53.56640625 275.44140625 C60.28503866 275.65396271 66.25207476 277.787758 70.953125 282.7265625 C74.48434998 287.49219851 75.43694097 291.31659679 75.56640625 297.12890625 C75.62248047 298.75892578 75.62248047 298.75892578 75.6796875 300.421875 C74.7325895 308.25063921 70.22813028 313.55838641 64.77636719 318.93652344 C64.1351442 319.58475571 63.4939212 320.23298798 62.83326721 320.90086365 C60.72816476 323.02345345 58.60890902 325.13121093 56.48828125 327.23828125 C55.01042202 328.71883803 53.53315675 330.1999879 52.05645752 331.68170166 C48.96613465 334.7779071 45.86873086 337.86679989 42.76611328 340.95068359 C38.80049082 344.89351805 34.85309874 348.85403977 30.91085434 352.82023239 C27.8656679 355.87990997 24.81097245 358.92995091 21.75336456 361.977211 C20.29446479 363.43345268 18.83850218 364.89264331 17.38561249 366.35488129 C15.34963822 368.40107517 13.30117034 370.43390997 11.24902344 372.46386719 C10.3618438 373.36319221 10.3618438 373.36319221 9.45674133 374.28068542 C4.63686403 379.00501234 -0.38389859 382.45284929 -7.16015625 383.4375 C-8.21976562 383.41816406 -9.279375 383.39882813 -10.37109375 383.37890625 C-11.43585938 383.37761719 -12.500625 383.37632812 -13.59765625 383.375 C-26.53516996 381.59328285 -37.32193323 366.56701984 -46.234375 357.7265625 C-46.85885214 357.10740904 -47.48332928 356.48825558 -48.12672997 355.85033989 C-51.42301229 352.58055545 -54.71576636 349.30726035 -58.00610352 346.03149414 C-60.70982191 343.3411617 -63.42064698 340.65830998 -66.13793945 337.98168945 C-69.44805003 334.72107987 -72.7455429 331.44819351 -76.03453636 328.16628838 C-77.27930725 326.92818724 -78.52829443 325.69430875 -79.78173256 324.46498299 C-94.26519471 310.24472203 -94.26519471 310.24472203 -96.375 299.83984375 C-96.18866003 292.75892488 -95.04323875 287.44950602 -90.09765625 282.1875 C-85.39497947 277.92634091 -81.00973082 275.66589935 -74.55859375 275.50390625 C-73.69878906 275.46394531 -72.83898437 275.42398437 -71.953125 275.3828125 C-60.27752628 277.41644297 -52.95722856 286.13007738 -45.12109375 294.25390625 C-43.91524509 295.48488352 -42.70822209 296.71471157 -41.5 297.94335938 C-38.56832544 300.92963252 -35.65297593 303.93100263 -32.74609375 306.94140625 C-32.74587638 306.32734031 -32.74565901 305.71327438 -32.74543506 305.08060038 C-32.73191409 268.67195133 -32.6924079 232.26341641 -32.61923813 195.85483662 C-32.61047156 191.48151254 -32.60192172 187.10818805 -32.59350586 182.73486328 C-32.5918268 181.86422687 -32.59014773 180.99359046 -32.58841779 180.09657113 C-32.56176066 166.0062931 -32.55265363 151.91605574 -32.55005232 137.82575507 C-32.54699099 123.36375125 -32.52502344 108.90186489 -32.48556918 94.43991411 C-32.461825 85.51877434 -32.45276159 76.59786919 -32.46258064 67.67670219 C-32.46790354 61.5559919 -32.45483307 55.43549152 -32.42743085 49.31484099 C-32.41216872 45.78543563 -32.40488998 42.25650014 -32.41949654 38.7270813 C-32.43514595 34.8942465 -32.41199721 31.06218652 -32.3853302 27.22940063 C-32.39600346 26.12237215 -32.40667672 25.01534366 -32.41767341 23.87476885 C-32.32369593 16.62251059 -30.92486853 10.96519882 -26.74609375 4.94140625 C-19.6756836 -1.79792883 -9.14049583 -3.52357663 0 0 Z " fill="#000000" transform="translate(308.74609375,1.05859375)"/>
<path d="M0 0 C3.96 0 7.92 0 12 0 C12 3.3 12 6.6 12 10 C12.66 10 13.32 10 14 10 C14.14695312 10.87011719 14.14695312 10.87011719 14.296875 11.7578125 C15.53607642 18.23157166 17.49867056 22.56627406 22.3125 27.25 C28.95494638 31.57531392 36.76913483 31.98025906 44.41796875 30.546875 C46.29209135 30.08249064 48.14875268 29.54851773 50 29 C50 28.34 50 27.68 50 27 C50.7425 26.62875 51.485 26.2575 52.25 25.875 C56.04185666 23.28964319 57.21558565 20.11989783 59 16 C59.33 15.34 59.66 14.68 60 14 C60.33 9.38 60.66 4.76 61 0 C90.7 0 120.4 0 151 0 C151.99 7.425 151.99 7.425 153 15 C156.18800336 22.26156322 159.45048759 26.7781451 166.6875 30.3125 C174.37049346 31.90708355 181.54160934 31.25158963 189 29 C189 28.34 189 27.68 189 27 C190.15242188 26.34644531 190.15242188 26.34644531 191.328125 25.6796875 C195.98401208 22.75274094 197.40209201 18.10460102 199 13 C199.64248104 8.66208054 199.92335936 4.38245116 200 0 C209.38981473 -0.89902481 216.14437033 0.69308574 224 6 C227.94791404 9.5507866 230.26084543 13.43474239 233 18 C233 33.84 233 49.68 233 66 C149.51 66 66.02 66 -20 66 C-20 14.84848485 -20 14.84848485 -13.5234375 7.390625 C-9.52239993 3.73839584 -5.36854497 2 0 2 C0 1.34 0 0.68 0 0 Z " fill="#000000" transform="translate(20,17)"/>
<path d="M0 0 C1.20527344 -0.01933594 2.41054688 -0.03867188 3.65234375 -0.05859375 C7.63794173 0.5212126 9.26541719 1.58890554 12.0625 4.4375 C13.63572611 9.15717832 13.246977 13.93239471 13.25 18.875 C13.26224609 19.92494141 13.27449219 20.97488281 13.28710938 22.05664062 C13.29000977 23.57354492 13.29000977 23.57354492 13.29296875 25.12109375 C13.29707764 26.04462646 13.30118652 26.96815918 13.30541992 27.91967773 C12.9803615 31.28885108 11.97474185 33.47724542 9.65234375 35.921875 C4.81804706 39.62474055 1.05616119 40.04909808 -4.9375 39.4375 C-4.9375 38.7775 -4.9375 38.1175 -4.9375 37.4375 C-5.68 37.23125 -6.4225 37.025 -7.1875 36.8125 C-10.93973232 34.93638384 -11.98643552 33.15889878 -13.9375 29.4375 C-14.48053774 26.08768554 -14.45218577 22.82371428 -14.375 19.4375 C-14.38208984 18.5609375 -14.38917969 17.684375 -14.39648438 16.78125 C-14.33667881 10.67188181 -13.54790555 6.18743724 -9.18359375 1.58984375 C-6.05135185 -0.01713253 -3.50561811 0.00374132 0 0 Z " fill="#000000" transform="translate(56.9375,-0.4375)"/>
<path d="M0 0 C1.20527344 -0.01933594 2.41054687 -0.03867188 3.65234375 -0.05859375 C7.63794173 0.5212126 9.26541719 1.58890554 12.0625 4.4375 C13.06880863 7.45642589 13.19148 9.50046176 13.1953125 12.65625 C13.19724609 14.17798828 13.19724609 14.17798828 13.19921875 15.73046875 C13.19535156 16.78878906 13.19148438 17.84710937 13.1875 18.9375 C13.19330078 20.52498047 13.19330078 20.52498047 13.19921875 22.14453125 C13.19792969 23.15902344 13.19664062 24.17351563 13.1953125 25.21875 C13.19418457 26.14751953 13.19305664 27.07628906 13.19189453 28.03320312 C13.03215852 31.00127909 12.60907093 32.86443712 10.53125 35.04296875 C5.85817029 38.79812209 2.76717394 40.0753316 -3.25 39.6484375 C-3.806875 39.57882813 -4.36375 39.50921875 -4.9375 39.4375 C-4.9375 38.7775 -4.9375 38.1175 -4.9375 37.4375 C-5.68 37.23125 -6.4225 37.025 -7.1875 36.8125 C-10.93973232 34.93638384 -11.98643552 33.15889878 -13.9375 29.4375 C-14.48053774 26.08768554 -14.45218577 22.82371428 -14.375 19.4375 C-14.38208984 18.5609375 -14.38917969 17.684375 -14.39648438 16.78125 C-14.33667881 10.67188181 -13.54790555 6.18743724 -9.18359375 1.58984375 C-6.05135185 -0.01713253 -3.50561811 0.00374132 0 0 Z " fill="#000000" transform="translate(195.9375,-0.4375)"/>
</svg>
