<?xml version="1.0" encoding="UTF-8"?>
<svg version="1.1" xmlns="http://www.w3.org/2000/svg" width="384" height="384">
<path d="M0 0 C83.49 0 166.98 0 253 0 C253 51.48 253 102.96 253 156 C252.34 156 251.68 156 251 156 C250.896875 156.556875 250.79375 157.11375 250.6875 157.6875 C248.94949581 163.53351409 245.63211611 166.87021969 240.43148994 169.78836823 C232.54293329 172.57375476 223.89384631 171.82827868 215.62866211 171.77636719 C213.45461474 171.78450524 211.28057565 171.79519272 209.10655212 171.80822754 C203.22222255 171.83550684 197.33852639 171.82500627 191.4541862 171.80595303 C185.28711326 171.79072669 179.12009333 171.80486005 172.95301819 171.81427002 C162.59903255 171.82517471 152.245304 171.81082863 141.89135742 171.78222656 C129.93052642 171.74956661 117.97030899 171.76015927 106.00949281 171.793185 C95.72807826 171.82043436 85.44684815 171.8242448 75.16540915 171.80855298 C69.02997473 171.79921174 62.89482852 171.79791641 56.75941277 171.81777191 C50.99136896 171.83513597 45.22411453 171.82302398 39.45615578 171.78840637 C37.34265324 171.78049002 35.22908398 171.78272204 33.11560822 171.79598236 C13.81357291 171.90589889 13.81357291 171.90589889 7.46000004 166.53544998 C6.73730002 165.77540224 6.73730002 165.77540224 6 165 C5.195625 164.154375 4.39125 163.30875 3.5625 162.4375 C0.5662431 157.76333924 -0.24948505 154.05701899 -0.24050903 148.514328 C-0.24326403 147.20597835 -0.24601902 145.89762869 -0.2488575 144.54963207 C-0.24176465 143.10103965 -0.23448886 141.65244811 -0.22705078 140.20385742 C-0.22643789 138.6513409 -0.22670546 137.09882383 -0.2277813 135.54630756 C-0.22823242 131.39245999 -0.21664902 127.23872788 -0.20256042 123.08490753 C-0.19116225 119.18571106 -0.19063373 115.28654253 -0.18920898 111.3873291 C-0.17871844 99.9873708 -0.1507961 88.58743394 -0.125 77.1875 C-0.08375 51.715625 -0.0425 26.24375 0 0 Z M40.39624023 38.80761719 C38.76299553 41.3721455 38.61390018 42.79320592 38.6015625 45.80859375 C38.59769531 46.72060547 38.59382813 47.63261719 38.58984375 48.57226562 C38.60144531 49.51779297 38.61304688 50.46332031 38.625 51.4375 C38.61339844 52.37916016 38.60179687 53.32082031 38.58984375 54.29101562 C38.59134942 61.17509168 38.59134942 61.17509168 42 67 C46.69741469 69.87969998 51.58438623 69.40623587 56.9375 69.4375 C57.92685547 69.47037109 58.91621094 69.50324219 59.93554688 69.53710938 C65.94727039 69.60338115 65.94727039 69.60338115 71.06640625 66.66015625 C75.04451051 61.18724917 75.36506676 58.26827395 75.375 51.6875 C75.41173828 50.42389648 75.41173828 50.42389648 75.44921875 49.13476562 C75.47511727 43.61406545 74.79845396 40.29825053 71 36 C66.53676455 33.25628969 62.15302737 33.66922819 57.0625 33.6875 C55.72155273 33.66333008 55.72155273 33.66333008 54.35351562 33.63867188 C48.37482029 33.63423335 44.54093563 34.13608046 40.39624023 38.80761719 Z M111 37 C108.0630907 41.6365943 108.63189472 46.62511979 108.625 51.9375 C108.60050781 52.92685547 108.57601562 53.91621094 108.55078125 54.93554688 C108.52353929 60.82854356 108.52353929 60.82854356 110.8984375 66.12890625 C115.35392098 70.09577723 120.10214912 69.22084696 125.8125 69.25 C127.31006836 69.2809375 127.31006836 69.2809375 128.83789062 69.3125 C135.99584092 69.48797818 135.99584092 69.48797818 142 66 C144.6844705 61.61019717 144.40267526 56.62428486 144.4375 51.625 C144.47037109 50.8 144.50324219 49.975 144.53710938 49.125 C144.59201477 42.83583689 143.21633306 39.69306969 139 35 C134.87580148 33.62526716 131.00748491 33.77608293 126.6875 33.75 C125.84509766 33.729375 125.00269531 33.70875 124.13476562 33.6875 C119.03161741 33.65558039 115.34285203 34.01050186 111 37 Z M179.39404297 38.80761719 C177.76352466 41.37189993 177.61389398 42.79472217 177.6015625 45.80859375 C177.59769531 46.72060547 177.59382812 47.63261719 177.58984375 48.57226562 C177.60144531 49.51779297 177.61304688 50.46332031 177.625 51.4375 C177.61339844 52.37916016 177.60179687 53.32082031 177.58984375 54.29101562 C177.59134942 61.17509168 177.59134942 61.17509168 181 67 C185.69741469 69.87969998 190.58438623 69.40623587 195.9375 69.4375 C196.92685547 69.47037109 197.91621094 69.50324219 198.93554688 69.53710938 C204.94727039 69.60338115 204.94727039 69.60338115 210.06640625 66.66015625 C213.73434425 61.61396276 214.36514269 58.38124815 214.375 52.25 C214.41173828 51.07050781 214.41173828 51.07050781 214.44921875 49.8671875 C214.47794201 44.10338642 213.48774709 40.64239374 210 36 C205.70756923 33.1772602 200.47949555 33.66843608 195.5 33.6875 C194.23736328 33.66333008 194.23736328 33.66333008 192.94921875 33.63867188 C187.13193454 33.63409134 183.42353781 34.27213834 179.39404297 38.80761719 Z M41 108 C41 108.66 41 109.32 41 110 C40.34 110 39.68 110 39 110 C39 117.26 39 124.52 39 132 C39.66 132 40.32 132 41 132 C41.33 133.32 41.66 134.64 42 136 C43.32 136.33 44.64 136.66 46 137 C46 137.66 46 138.32 46 139 C52.93 139 59.86 139 67 139 C67 138.34 67 137.68 67 137 C67.8971875 136.8453125 67.8971875 136.8453125 68.8125 136.6875 C71.33844795 135.89363064 72.34885407 135.04427591 74 133 C75.33370041 128.99889877 75.22335475 125.31496597 75.25 121.125 C75.270625 120.32191406 75.29125 119.51882813 75.3125 118.69140625 C75.34342228 113.99895069 75.14990566 110.75339225 72 107 C71.01 106.67 70.02 106.34 69 106 C69 105.34 69 104.68 69 104 C64.88087862 102.62695954 61.00345265 102.6966611 56.6875 102.625 C55.84509766 102.58761719 55.00269531 102.55023438 54.13476562 102.51171875 C48.00629296 102.42546972 45.18548989 103.45263251 41 108 Z M110 108 C108.07192315 111.85615369 108.72810627 116.57049833 108.6875 120.8125 C108.65849609 121.81087891 108.62949219 122.80925781 108.59960938 123.83789062 C108.56032798 128.37338124 108.54374294 131.20325259 110.83203125 135.19921875 C112.91490216 137.31947831 112.91490216 137.31947831 116 137 C116 137.66 116 138.32 116 139 C122.93 139 129.86 139 137 139 C137 138.34 137 137.68 137 137 C138.175625 136.6596875 138.175625 136.6596875 139.375 136.3125 C142.10572626 135.25247719 142.10572626 135.25247719 143.14453125 132.9765625 C144.29868908 128.96072566 144.32947066 125.220312 144.3125 121.0625 C144.32861328 120.27681641 144.34472656 119.49113281 144.36132812 118.68164062 C144.36546295 113.74052835 143.87308857 110.20009244 141 106 C136.62872577 102.09973264 131.62368359 102.48379845 126.0625 102.5 C125.18142578 102.47164063 124.30035156 102.44328125 123.39257812 102.4140625 C117.15373599 102.39536934 114.29200936 103.42553095 110 108 Z M179 108 C177.06881782 111.86236435 177.68465535 116.56341181 177.625 120.8125 C177.58761719 121.81087891 177.55023438 122.80925781 177.51171875 123.83789062 C177.417123 129.96010844 177.417123 129.96010844 180.3984375 135.19921875 C182.74674437 137.18971526 182.74674437 137.18971526 185 137 C185 137.66 185 138.32 185 139 C191.93 139 198.86 139 206 139 C206 138.34 206 137.68 206 137 C206.8971875 136.8453125 206.8971875 136.8453125 207.8125 136.6875 C210.33844795 135.89363064 211.34885407 135.04427591 213 133 C214.33370041 128.99889877 214.22335475 125.31496597 214.25 121.125 C214.270625 120.32191406 214.29125 119.51882813 214.3125 118.69140625 C214.34342228 113.99895069 214.14990566 110.75339225 211 107 C210.01 106.67 209.02 106.34 208 106 C208 105.34 208 104.68 208 104 C203.89828957 102.63276319 200.04775005 102.69673786 195.75 102.625 C194.91597656 102.58761719 194.08195312 102.55023438 193.22265625 102.51171875 C186.86298356 102.42186466 183.78121303 103.787979 179 108 Z " fill="#000000" transform="translate(0,213)"/>
<path d="M0 0 C1.06476563 0.00128906 2.12953125 0.00257812 3.2265625 0.00390625 C16.16407621 1.7856234 26.95083948 16.81188641 35.86328125 25.65234375 C36.48775839 26.27149721 37.11223553 26.89065067 37.75563622 27.52856636 C41.05191854 30.7983508 44.34467261 34.0716459 47.63500977 37.34741211 C50.33872816 40.03774455 53.04955323 42.72059627 55.7668457 45.3972168 C59.07695628 48.65782638 62.37444915 51.93071274 65.66344261 55.21261787 C66.9082135 56.45071901 68.15720068 57.6845975 69.41063881 58.91392326 C83.89410096 73.13418422 83.89410096 73.13418422 86.00390625 83.5390625 C85.81756628 90.61998137 84.672145 95.92940023 79.7265625 101.19140625 C75.02388572 105.45256534 70.63863707 107.7130069 64.1875 107.875 C63.32769531 107.91496094 62.46789062 107.95492187 61.58203125 107.99609375 C49.90643253 105.96246328 42.58613481 97.24882887 34.75 89.125 C33.54415134 87.89402273 32.33712834 86.66419468 31.12890625 85.43554688 C28.19723169 82.44927373 25.28188218 79.44790362 22.375 76.4375 C22.37478263 77.05156594 22.37456526 77.66563187 22.37434131 78.29830587 C22.36082034 114.70695492 22.32131415 151.11548984 22.24814438 187.52406963 C22.23937781 191.89739371 22.23082797 196.2707182 22.22241211 200.64404297 C22.22073305 201.51467938 22.21905398 202.38531579 22.21732404 203.28233512 C22.19066691 217.37261315 22.18155988 231.46285051 22.17895857 245.55315118 C22.17589724 260.015155 22.15392969 274.47704136 22.11447543 288.93899214 C22.09073125 297.86013191 22.08166784 306.78103706 22.09148689 315.70220406 C22.09680979 321.82291435 22.08373932 327.94341473 22.0563371 334.06406526 C22.04107497 337.59347062 22.03379623 341.12240611 22.04840279 344.65182495 C22.0640522 348.48465975 22.04090346 352.31671973 22.01423645 356.14950562 C22.02490971 357.2565341 22.03558297 358.36356259 22.04657966 359.5041374 C21.95260218 366.75639566 20.55377478 372.41370743 16.375 378.4375 C10.23269287 384.29219089 4.14255798 384.91579775 -4.03515625 384.83984375 C-10.14614692 384.15493402 -14.01526413 381.5921823 -17.88815612 376.91058064 C-22.22076512 370.85713478 -22.33333846 365.55666156 -22.26423645 358.27612305 C-22.27259213 357.0646397 -22.2809478 355.85315636 -22.28955668 354.6049614 C-22.30765227 351.25908726 -22.30353363 347.91459767 -22.2898711 344.56879306 C-22.28058284 340.95466129 -22.30016977 337.34066989 -22.31619263 333.72657776 C-22.34000276 327.47061986 -22.34564892 321.21485894 -22.33884621 314.9588623 C-22.32903719 305.91386432 -22.34679564 296.8690844 -22.37121352 287.82412171 C-22.41008723 273.14820522 -22.42676512 258.47235118 -22.42944336 243.79638672 C-22.43209215 229.54277341 -22.44522 215.28923307 -22.47241211 201.03564453 C-22.47408549 200.15658262 -22.47575887 199.27752072 -22.47748295 198.37182057 C-22.48594262 193.96168428 -22.494608 189.55154842 -22.50337565 185.14141273 C-22.57580925 148.57345272 -22.6122037 112.00552709 -22.625 75.4375 C-23.46683838 76.30028564 -24.30867676 77.16307129 -25.17602539 78.05200195 C-28.31721465 81.26586968 -31.47185167 84.46625326 -34.63061523 87.6628418 C-35.99301656 89.04529509 -37.35179839 90.4313255 -38.70678711 91.82104492 C-40.66087552 93.82393173 -42.62784048 95.81337463 -44.59765625 97.80078125 C-45.19586685 98.41963699 -45.79407745 99.03849274 -46.41041565 99.67610168 C-51.48090322 104.74923016 -56.5219588 107.84747826 -63.9375 107.9375 C-70.65613241 107.72494354 -76.62316851 105.59114825 -81.32421875 100.65234375 C-84.85544373 95.88670774 -85.80803472 92.06230946 -85.9375 86.25 C-85.97488281 85.16332031 -86.01226562 84.07664062 -86.05078125 82.95703125 C-85.10368325 75.12826704 -80.59922403 69.82051984 -75.14746094 64.44238281 C-74.50623795 63.79415054 -73.86501495 63.14591827 -73.20436096 62.4780426 C-71.09925851 60.3554528 -68.98000277 58.24769532 -66.859375 56.140625 C-65.38151577 54.66006822 -63.9042505 53.17891835 -62.42755127 51.69720459 C-59.3372284 48.60099915 -56.23982461 45.51210636 -53.13720703 42.42822266 C-49.17158457 38.4853882 -45.22419249 34.52486648 -41.28194809 30.55867386 C-38.23676165 27.49899628 -35.1820662 24.44895534 -32.12445831 21.40169525 C-30.66555854 19.94545357 -29.20959593 18.48626294 -27.75670624 17.02402496 C-25.72073197 14.97783108 -23.67226409 12.94499628 -21.62011719 10.91503906 C-21.02866409 10.31548904 -20.437211 9.71593903 -19.82783508 9.09822083 C-14.08483235 3.46906873 -8.24252828 -0.1504111 0 0 Z " fill="#000000" transform="translate(298.625,-0.4375)"/>
<path d="M0 0 C3.96 0 7.92 0 12 0 C12 3.3 12 6.6 12 10 C12.66 10 13.32 10 14 10 C14.14695312 10.87011719 14.14695312 10.87011719 14.296875 11.7578125 C15.53607642 18.23157166 17.49867056 22.56627406 22.3125 27.25 C28.95494638 31.57531392 36.76913483 31.98025906 44.41796875 30.546875 C46.29209135 30.08249064 48.14875268 29.54851773 50 29 C50 28.34 50 27.68 50 27 C50.7425 26.62875 51.485 26.2575 52.25 25.875 C56.04185666 23.28964319 57.21558565 20.11989783 59 16 C59.33 15.34 59.66 14.68 60 14 C60.33 9.38 60.66 4.76 61 0 C90.7 0 120.4 0 151 0 C151.99 7.425 151.99 7.425 153 15 C156.18800336 22.26156322 159.45048759 26.7781451 166.6875 30.3125 C174.37049346 31.90708355 181.54160934 31.25158963 189 29 C189 28.34 189 27.68 189 27 C190.15242188 26.34644531 190.15242188 26.34644531 191.328125 25.6796875 C195.98401208 22.75274094 197.40209201 18.10460102 199 13 C199.64248104 8.66208054 199.92335936 4.38245116 200 0 C209.38981473 -0.89902481 216.14437033 0.69308574 224 6 C227.94791404 9.5507866 230.26084543 13.43474239 233 18 C233 33.84 233 49.68 233 66 C149.51 66 66.02 66 -20 66 C-20 14.84848485 -20 14.84848485 -13.5234375 7.390625 C-9.52239993 3.73839584 -5.36854497 2 0 2 C0 1.34 0 0.68 0 0 Z " fill="#000000" transform="translate(20,137)"/>
<path d="M0 0 C1.20527344 -0.01933594 2.41054688 -0.03867188 3.65234375 -0.05859375 C7.63794173 0.5212126 9.26541719 1.58890554 12.0625 4.4375 C13.63572611 9.15717832 13.246977 13.93239471 13.25 18.875 C13.26224609 19.92494141 13.27449219 20.97488281 13.28710938 22.05664062 C13.29000977 23.57354492 13.29000977 23.57354492 13.29296875 25.12109375 C13.29707764 26.04462646 13.30118652 26.96815918 13.30541992 27.91967773 C12.9803615 31.28885108 11.97474185 33.47724542 9.65234375 35.921875 C4.81804706 39.62474055 1.05616119 40.04909808 -4.9375 39.4375 C-4.9375 38.7775 -4.9375 38.1175 -4.9375 37.4375 C-5.68 37.23125 -6.4225 37.025 -7.1875 36.8125 C-10.93973232 34.93638384 -11.98643552 33.15889878 -13.9375 29.4375 C-14.48053774 26.08768554 -14.45218577 22.82371428 -14.375 19.4375 C-14.38208984 18.5609375 -14.38917969 17.684375 -14.39648438 16.78125 C-14.33667881 10.67188181 -13.54790555 6.18743724 -9.18359375 1.58984375 C-6.05135185 -0.01713253 -3.50561811 0.00374132 0 0 Z " fill="#000000" transform="translate(56.9375,119.5625)"/>
<path d="M0 0 C1.20527344 -0.01933594 2.41054687 -0.03867188 3.65234375 -0.05859375 C7.63794173 0.5212126 9.26541719 1.58890554 12.0625 4.4375 C13.06880863 7.45642589 13.19148 9.50046176 13.1953125 12.65625 C13.19724609 14.17798828 13.19724609 14.17798828 13.19921875 15.73046875 C13.19535156 16.78878906 13.19148438 17.84710938 13.1875 18.9375 C13.19330078 20.52498047 13.19330078 20.52498047 13.19921875 22.14453125 C13.19792969 23.15902344 13.19664062 24.17351562 13.1953125 25.21875 C13.19418457 26.14751953 13.19305664 27.07628906 13.19189453 28.03320312 C13.03215852 31.00127909 12.60907093 32.86443712 10.53125 35.04296875 C5.85817029 38.79812209 2.76717394 40.0753316 -3.25 39.6484375 C-3.806875 39.57882813 -4.36375 39.50921875 -4.9375 39.4375 C-4.9375 38.7775 -4.9375 38.1175 -4.9375 37.4375 C-5.68 37.23125 -6.4225 37.025 -7.1875 36.8125 C-10.93973232 34.93638384 -11.98643552 33.15889878 -13.9375 29.4375 C-14.48053774 26.08768554 -14.45218577 22.82371428 -14.375 19.4375 C-14.38208984 18.5609375 -14.38917969 17.684375 -14.39648438 16.78125 C-14.33667881 10.67188181 -13.54790555 6.18743724 -9.18359375 1.58984375 C-6.05135185 -0.01713253 -3.50561811 0.00374132 0 0 Z " fill="#000000" transform="translate(195.9375,119.5625)"/>
</svg>
