<?xml version="1.0" encoding="UTF-8"?>
<svg version="1.1" xmlns="http://www.w3.org/2000/svg" width="384" height="384">
<path d="M0 0 C2.44007926 0.00847502 4.87777908 -0.02030285 7.31762695 -0.05200195 C19.13110654 -0.10388523 33.28590529 0.36052064 43.77270508 6.44604492 C43.77270508 7.10604492 43.77270508 7.76604492 43.77270508 8.44604492 C44.65958008 8.56979492 45.54645508 8.69354492 46.46020508 8.82104492 C49.4765801 9.39017228 51.97596562 10.21218928 54.77270508 11.44604492 C54.77270508 12.10604492 54.77270508 12.76604492 54.77270508 13.44604492 C55.48813477 13.70385742 56.20356445 13.96166992 56.94067383 14.22729492 C59.94430619 15.51989257 62.4077588 17.07381582 65.08520508 18.94604492 C65.96821289 19.55448242 66.8512207 20.16291992 67.76098633 20.78979492 C68.42485352 21.33635742 69.0887207 21.88291992 69.77270508 22.44604492 C69.77270508 23.10604492 69.77270508 23.76604492 69.77270508 24.44604492 C70.53583008 24.71416992 71.29895508 24.98229492 72.08520508 25.25854492 C74.66259125 26.39738998 76.04225372 27.26021163 77.77270508 29.44604492 C77.77270508 30.10604492 77.77270508 30.76604492 77.77270508 31.44604492 C78.37083008 31.71416992 78.96895508 31.98229492 79.58520508 32.25854492 C82.51230023 33.84753943 84.28218317 35.46500111 85.77270508 38.44604492 C86.9656161 51.91536939 86.9656161 51.91536939 84.67895508 56.76635742 C81.37291737 60.2658335 77.50814405 61.71123543 72.77270508 62.44604492 C66.85604992 62.42346227 62.46024937 61.07371818 58.19458008 56.90307617 C57.01446501 55.69903986 55.83614588 54.49324124 54.65942383 53.28588867 C49.61930162 48.37098689 44.34996618 44.91251783 37.77270508 42.44604492 C37.77270508 41.78604492 37.77270508 41.12604492 37.77270508 40.44604492 C35.68597916 39.75046962 33.59830757 39.05765443 31.50708008 38.37573242 C29.68961386 37.75779391 27.88639658 37.0961863 26.10083008 36.39135742 C14.17728891 31.87885703 1.95655966 31.53832207 -10.49291992 33.97338867 C-13.13321451 34.42978245 -15.55457926 34.52895763 -18.22729492 34.44604492 C-18.22729492 35.10604492 -18.22729492 35.76604492 -18.22729492 36.44604492 C-18.87956055 36.61620117 -19.53182617 36.78635742 -20.20385742 36.96166992 C-25.58504243 38.45379792 -29.66614958 40.12884831 -34.22729492 43.44604492 C-35.16959961 43.89206055 -36.1119043 44.33807617 -37.08276367 44.79760742 C-40.3176439 46.49340799 -42.62065498 48.34225569 -45.28979492 50.82104492 C-46.15088867 51.62026367 -47.01198242 52.41948242 -47.89916992 53.24291992 C-48.66745117 53.96995117 -49.43573242 54.69698242 -50.22729492 55.44604492 C-51.15541992 56.31229492 -52.08354492 57.17854492 -53.03979492 58.07104492 C-54.88656257 60.07610694 -56.3726314 62.0255278 -57.91479492 64.25854492 C-58.67791992 65.31041992 -59.44104492 66.36229492 -60.22729492 67.44604492 C-60.88729492 67.44604492 -61.54729492 67.44604492 -62.22729492 67.44604492 C-62.45416992 68.27104492 -62.68104492 69.09604492 -62.91479492 69.94604492 C-64.24651022 73.49728572 -65.90861565 76.28801393 -68.00854492 79.41870117 C-69.36861649 81.68112791 -70.27110245 83.98961071 -71.22729492 86.44604492 C-70.01508774 86.43272125 -68.80288055 86.41939758 -67.55393982 86.40567017 C-56.12179644 86.28396214 -44.68978476 86.19405925 -33.25714016 86.13517189 C-27.37964788 86.10387911 -21.50267921 86.06144236 -15.62548828 85.9934082 C-9.95203071 85.92814457 -4.27907631 85.89232343 1.39472771 85.87678146 C3.55769712 85.86570786 5.72063944 85.84408321 7.88339424 85.81166458 C10.91684267 85.76800919 13.94822082 85.76211476 16.98193359 85.76489258 C17.87313904 85.74332092 18.76434448 85.72174927 19.68255615 85.69952393 C25.3854268 85.75590926 28.3192555 86.96624062 32.43002224 90.94997215 C35.80142611 94.70652983 37.77270508 98.41945959 37.77270508 103.50854492 C36.29398992 107.85227069 34.7388229 112.32254902 30.58520508 114.69604492 C29.98708008 114.94354492 29.38895508 115.19104492 28.77270508 115.44604492 C28.44270508 116.43604492 28.11270508 117.42604492 27.77270508 118.44604492 C24.97112204 119.51430798 22.2798199 119.56985726 19.30548096 119.56629944 C17.97200371 119.56836143 17.97200371 119.56836143 16.61158752 119.57046509 C15.64414108 119.56686981 14.67669464 119.56327454 13.67993164 119.55957031 C12.65522263 119.55971634 11.63051361 119.55986237 10.57475281 119.56001282 C7.18759037 119.55931613 3.80048291 119.55153507 0.41333008 119.54370117 C-1.93507863 119.54183613 -4.28348773 119.54041263 -6.63189697 119.53941345 C-12.81326369 119.53559508 -18.99460692 119.52577057 -25.17596436 119.51470947 C-31.48343589 119.50448076 -37.79091123 119.4999127 -44.09838867 119.49487305 C-56.47470274 119.48414772 -68.8509932 119.46655639 -81.22729492 119.44604492 C-81.22729492 129.01604492 -81.22729492 138.58604492 -81.22729492 148.44604492 C-76.41240479 148.42247925 -76.41240479 148.42247925 -71.50024414 148.3984375 C-60.8951814 148.34873033 -50.29011351 148.31559136 -39.68496513 148.29060841 C-33.25500197 148.27495195 -26.82515815 148.25371369 -20.39526367 148.21972656 C-14.19017488 148.18713294 -7.9852009 148.16919175 -1.78003311 148.16141319 C0.58744998 148.15586974 2.95492677 148.1450448 5.32236099 148.12885475 C8.63814123 148.10708092 11.9534469 148.10407805 15.26928711 148.10546875 C16.24824448 148.09468292 17.22720184 148.08389709 18.23582458 148.07278442 C23.49519777 148.09665688 27.25772125 148.43188651 31.77270508 151.44604492 C35.70845246 156.47505547 38.14129744 160.9956785 37.77270508 167.44604492 C37.11270508 167.44604492 36.45270508 167.44604492 35.77270508 167.44604492 C35.64895508 168.18854492 35.52520508 168.93104492 35.39770508 169.69604492 C34.37548318 174.19382127 33.68466739 175.80432815 29.7986908 178.53875732 C25.25291399 181.04326697 21.07508655 180.9823331 15.98193359 180.90014648 C15.02506149 180.90073059 14.06818939 180.9013147 13.08232117 180.9019165 C9.9383745 180.89914309 6.79539115 180.86808573 3.65161133 180.83666992 C1.46443703 180.82920491 -0.72274398 180.8235132 -2.90992737 180.81951904 C-8.65248239 180.80428336 -14.3946295 180.76501896 -20.13702393 180.72070312 C-26.00234459 180.67970606 -31.86773149 180.66149853 -37.7331543 180.64135742 C-49.23137989 180.59852303 -60.72930342 180.53029644 -72.22729492 180.44604492 C-70.98837229 182.98681898 -69.74265482 185.52387579 -68.49291992 188.05932617 C-68.14696777 188.77060669 -67.80101563 189.48188721 -67.44458008 190.21472168 C-64.33473088 196.50116277 -60.60431214 201.95638257 -56.22729492 207.44604492 C-55.60338867 208.27491211 -54.97948242 209.1037793 -54.33666992 209.95776367 C-52.01257783 212.69933157 -49.53293389 214.82807531 -46.72729492 217.07104492 C-45.78885742 217.82643555 -44.85041992 218.58182617 -43.88354492 219.36010742 C-39.75598415 222.60145661 -35.95320342 225.13131423 -31.22729492 227.44604492 C-30.05166992 228.21948242 -30.05166992 228.21948242 -28.85229492 229.00854492 C-25.38646423 230.90649983 -22.08299139 231.59648468 -18.22729492 232.44604492 C-18.22729492 233.10604492 -18.22729492 233.76604492 -18.22729492 234.44604492 C1.30222189 237.29409946 18.45043976 236.36918668 36.77270508 228.44604492 C37.10270508 227.78604492 37.43270508 227.12604492 37.77270508 226.44604492 C39.17169517 225.78242142 40.59313204 225.16593177 42.02270508 224.57104492 C47.64549253 221.89659588 51.65506942 218.13685196 55.95336914 213.72387695 C60.15062577 209.55446063 64.78603918 206.56486975 70.86962891 206.38354492 C76.32666528 206.87297666 79.65056383 208.83681973 83.88989258 212.05151367 C86.51000131 215.38372665 86.28719757 218.3934209 86.14770508 222.44604492 C86.14577148 223.51338867 86.14577148 223.51338867 86.14379883 224.60229492 C86.08105552 228.33900767 85.91326231 231.31870598 83.77270508 234.44604492 C80.34413365 237.44604492 80.34413365 237.44604492 77.77270508 237.44604492 C77.52520508 238.04416992 77.27770508 238.64229492 77.02270508 239.25854492 C75.59197983 241.76231411 74.20354687 242.9267688 71.77270508 244.44604492 C71.11270508 244.44604492 70.45270508 244.44604492 69.77270508 244.44604492 C69.55614258 245.02870117 69.33958008 245.61135742 69.11645508 246.21166992 C67.32725994 249.18672695 65.21536642 250.38398504 62.27270508 252.19604492 C60.80317383 253.11643555 60.80317383 253.11643555 59.30395508 254.05541992 C56.77270508 255.44604492 56.77270508 255.44604492 54.77270508 255.44604492 C54.77270508 256.10604492 54.77270508 256.76604492 54.77270508 257.44604492 C53.50430982 257.9521979 52.23287406 258.45073591 50.96020508 258.94604492 C49.89866211 259.36370117 49.89866211 259.36370117 48.81567383 259.78979492 C46.77270508 260.44604492 46.77270508 260.44604492 43.77270508 260.44604492 C43.77270508 261.10604492 43.77270508 261.76604492 43.77270508 262.44604492 C41.79502225 263.07572446 39.81546573 263.69951982 37.83520508 264.32104492 C36.73305664 264.6690918 35.6309082 265.01713867 34.49536133 265.37573242 C27.33162678 267.43540007 20.64433208 268.759266 13.17895508 268.78198242 C12.38855835 268.78863922 11.59816162 268.79529602 10.78381348 268.80215454 C9.11997778 268.81220799 7.45610236 268.81697385 5.79223633 268.81665039 C3.30584257 268.82098712 0.82128183 268.85728194 -1.66479492 268.89526367 C-13.44404274 268.97743767 -26.71721785 268.41584924 -37.22729492 262.44604492 C-37.22729492 261.78604492 -37.22729492 261.12604492 -37.22729492 260.44604492 C-38.11416992 260.32229492 -39.00104492 260.19854492 -39.91479492 260.07104492 C-42.93116995 259.50191756 -45.43055546 258.67990056 -48.22729492 257.44604492 C-48.22729492 256.78604492 -48.22729492 256.12604492 -48.22729492 255.44604492 C-48.96979492 255.15729492 -49.71229492 254.86854492 -50.47729492 254.57104492 C-52.79469289 253.62301848 -55.00646607 252.59758581 -57.22729492 251.44604492 C-57.22729492 250.78604492 -57.22729492 250.12604492 -57.22729492 249.44604492 C-57.90791992 249.23979492 -58.58854492 249.03354492 -59.28979492 248.82104492 C-65.21187438 246.04900773 -69.70904033 241.08320095 -74.22729492 236.44604492 C-75.0084668 235.6803418 -75.78963867 234.91463867 -76.59448242 234.12573242 C-83.03252224 227.57306875 -88.63558494 220.39544283 -93.22729492 212.44604492 C-94.09354492 211.00358398 -94.09354492 211.00358398 -94.97729492 209.53198242 C-98.10880449 204.27365595 -101.02987045 199.15934854 -103.22729492 193.44604492 C-103.4928418 192.76670898 -103.75838867 192.08737305 -104.03198242 191.38745117 C-105.30143659 188.09291536 -106.38933153 184.87759851 -107.22729492 181.44604492 C-108.52352783 181.43669922 -109.81976074 181.42735352 -111.15527344 181.41772461 C-115.98439348 181.37772204 -120.81288334 181.31193432 -125.64160156 181.23852539 C-127.72778196 181.2103753 -129.81406784 181.18913122 -131.90039062 181.17504883 C-134.90704107 181.1535369 -137.91243133 181.10684368 -140.91870117 181.05541992 C-141.84501846 181.05419128 -142.77133575 181.05296265 -143.72572327 181.05169678 C-149.72194862 180.91739483 -153.31311271 179.94275983 -158.22729492 176.44604492 C-161.75625514 171.89254787 -161.7908585 167.00462203 -161.64526367 161.43041992 C-161.02762381 157.02035587 -159.45206937 153.55138328 -156.22729492 150.44604492 C-151.67024225 148.03719296 -147.44446052 148.18641867 -142.42651367 148.25073242 C-141.5901387 148.25356232 -140.75376373 148.25639221 -139.89204407 148.25930786 C-137.23281266 148.27046172 -134.57392375 148.2955573 -131.91479492 148.32104492 C-130.10685709 148.33108093 -128.29891396 148.34020569 -126.4909668 148.34838867 C-122.0696118 148.37038533 -117.64851134 148.40488198 -113.22729492 148.44604492 C-113.55181641 147.35727051 -113.87633789 146.26849609 -114.21069336 145.14672852 C-115.18748542 141.59096146 -115.4954129 138.73993512 -115.47729492 135.07104492 C-115.4850293 133.51256836 -115.4850293 133.51256836 -115.49291992 131.92260742 C-115.16567439 127.63954086 -114.25534211 123.60858223 -113.22729492 119.44604492 C-114.82383911 119.46175537 -114.82383911 119.46175537 -116.45263672 119.4777832 C-120.41288878 119.51406568 -124.37312622 119.53697537 -128.33349609 119.5559082 C-130.04543532 119.565947 -131.75735747 119.57958087 -133.46923828 119.59692383 C-135.93420634 119.62126566 -138.39894707 119.6325493 -140.86401367 119.64135742 C-142.00648811 119.65684128 -142.00648811 119.65684128 -143.17204285 119.67263794 C-147.30812233 119.67350528 -150.50850082 119.30383489 -154.22729492 117.44604492 C-154.22729492 116.78604492 -154.22729492 116.12604492 -154.22729492 115.44604492 C-154.82541992 115.21916992 -155.42354492 114.99229492 -156.03979492 114.75854492 C-158.89157093 113.04747932 -159.74762104 111.41370546 -161.22729492 108.44604492 C-162.06027479 102.87033282 -161.92764388 97.95049824 -159.53979492 92.82104492 C-157.16213024 90.37911903 -155.48716697 89.35156494 -152.22729492 88.44604492 C-152.22729492 87.78604492 -152.22729492 87.12604492 -152.22729492 86.44604492 C-137.04729492 86.44604492 -121.86729492 86.44604492 -106.22729492 86.44604492 C-105.56729492 83.14604492 -104.90729492 79.84604492 -104.22729492 76.44604492 C-103.23729492 75.12604492 -102.24729492 73.80604492 -101.22729492 72.44604492 C-100.53914849 70.51268114 -99.8511664 68.5792583 -99.16479492 66.64526367 C-97.79032957 63.42099704 -95.85221715 60.69608964 -93.84838867 57.83276367 C-91.54410949 54.44019842 -89.54401547 50.88444653 -87.52416992 47.31713867 C-87.09620117 46.69967773 -86.66823242 46.0822168 -86.22729492 45.44604492 C-85.56729492 45.44604492 -84.90729492 45.44604492 -84.22729492 45.44604492 C-84.00041992 44.74479492 -83.77354492 44.04354492 -83.53979492 43.32104492 C-81.008883 37.77714261 -76.98377565 34.10487625 -72.22729492 30.44604492 C-71.58791992 29.80666992 -70.94854492 29.16729492 -70.28979492 28.50854492 C-66.3219 24.54065 -62.63032631 21.19408449 -57.22729492 19.44604492 C-57.22729492 18.78604492 -57.22729492 18.12604492 -57.22729492 17.44604492 C-50.47729492 13.44604492 -50.47729492 13.44604492 -48.22729492 13.44604492 C-48.22729492 12.78604492 -48.22729492 12.12604492 -48.22729492 11.44604492 C-46.95889967 10.93989195 -45.68746391 10.44135393 -44.41479492 9.94604492 C-43.70709961 9.66760742 -42.9994043 9.38916992 -42.27026367 9.10229492 C-40.22729492 8.44604492 -40.22729492 8.44604492 -37.22729492 8.44604492 C-37.22729492 7.78604492 -37.22729492 7.12604492 -37.22729492 6.44604492 C-24.95280953 1.39184506 -13.14821696 -0.06927682 0 0 Z " fill="#000000" transform="translate(161.227294921875,115.553955078125)"/>
<path d="M0 0 C1.06476563 0.00128906 2.12953125 0.00257812 3.2265625 0.00390625 C16.16407621 1.7856234 26.95083948 16.81188641 35.86328125 25.65234375 C36.48775839 26.27149721 37.11223553 26.89065067 37.75563622 27.52856636 C41.05191854 30.7983508 44.34467261 34.0716459 47.63500977 37.34741211 C50.33872816 40.03774455 53.04955323 42.72059627 55.7668457 45.3972168 C59.07695628 48.65782638 62.37444915 51.93071274 65.66344261 55.21261787 C66.9082135 56.45071901 68.15720068 57.6845975 69.41063881 58.91392326 C83.89410096 73.13418422 83.89410096 73.13418422 86.00390625 83.5390625 C85.81756628 90.61998137 84.672145 95.92940023 79.7265625 101.19140625 C75.02388572 105.45256534 70.63863707 107.7130069 64.1875 107.875 C63.32769531 107.91496094 62.46789062 107.95492187 61.58203125 107.99609375 C49.90643253 105.96246328 42.58613481 97.24882887 34.75 89.125 C33.54415134 87.89402273 32.33712834 86.66419468 31.12890625 85.43554688 C28.19723169 82.44927373 25.28188218 79.44790362 22.375 76.4375 C22.37478263 77.05156594 22.37456526 77.66563187 22.37434131 78.29830587 C22.36082034 114.70695492 22.32131415 151.11548984 22.24814438 187.52406963 C22.23937781 191.89739371 22.23082797 196.2707182 22.22241211 200.64404297 C22.22073305 201.51467938 22.21905398 202.38531579 22.21732404 203.28233512 C22.19066691 217.37261315 22.18155988 231.46285051 22.17895857 245.55315118 C22.17589724 260.015155 22.15392969 274.47704136 22.11447543 288.93899214 C22.09073125 297.86013191 22.08166784 306.78103706 22.09148689 315.70220406 C22.09680979 321.82291435 22.08373932 327.94341473 22.0563371 334.06406526 C22.04107497 337.59347062 22.03379623 341.12240611 22.04840279 344.65182495 C22.0640522 348.48465975 22.04090346 352.31671973 22.01423645 356.14950562 C22.02490971 357.2565341 22.03558297 358.36356259 22.04657966 359.5041374 C21.95260218 366.75639566 20.55377478 372.41370743 16.375 378.4375 C10.23269287 384.29219089 4.14255798 384.91579775 -4.03515625 384.83984375 C-10.14614692 384.15493402 -14.01526413 381.5921823 -17.88815612 376.91058064 C-22.22076512 370.85713478 -22.33333846 365.55666156 -22.26423645 358.27612305 C-22.27259213 357.0646397 -22.2809478 355.85315636 -22.28955668 354.6049614 C-22.30765227 351.25908726 -22.30353363 347.91459767 -22.2898711 344.56879306 C-22.28058284 340.95466129 -22.30016977 337.34066989 -22.31619263 333.72657776 C-22.34000276 327.47061986 -22.34564892 321.21485894 -22.33884621 314.9588623 C-22.32903719 305.91386432 -22.34679564 296.8690844 -22.37121352 287.82412171 C-22.41008723 273.14820522 -22.42676512 258.47235118 -22.42944336 243.79638672 C-22.43209215 229.54277341 -22.44522 215.28923307 -22.47241211 201.03564453 C-22.47408549 200.15658262 -22.47575887 199.27752072 -22.47748295 198.37182057 C-22.48594262 193.96168428 -22.494608 189.55154842 -22.50337565 185.14141273 C-22.57580925 148.57345272 -22.6122037 112.00552709 -22.625 75.4375 C-23.46683838 76.30028564 -24.30867676 77.16307129 -25.17602539 78.05200195 C-28.31721465 81.26586968 -31.47185167 84.46625326 -34.63061523 87.6628418 C-35.99301656 89.04529509 -37.35179839 90.4313255 -38.70678711 91.82104492 C-40.66087552 93.82393173 -42.62784048 95.81337463 -44.59765625 97.80078125 C-45.19586685 98.41963699 -45.79407745 99.03849274 -46.41041565 99.67610168 C-51.48090322 104.74923016 -56.5219588 107.84747826 -63.9375 107.9375 C-70.65613241 107.72494354 -76.62316851 105.59114825 -81.32421875 100.65234375 C-84.85544373 95.88670774 -85.80803472 92.06230946 -85.9375 86.25 C-85.97488281 85.16332031 -86.01226562 84.07664062 -86.05078125 82.95703125 C-85.10368325 75.12826704 -80.59922403 69.82051984 -75.14746094 64.44238281 C-74.50623795 63.79415054 -73.86501495 63.14591827 -73.20436096 62.4780426 C-71.09925851 60.3554528 -68.98000277 58.24769532 -66.859375 56.140625 C-65.38151577 54.66006822 -63.9042505 53.17891835 -62.42755127 51.69720459 C-59.3372284 48.60099915 -56.23982461 45.51210636 -53.13720703 42.42822266 C-49.17158457 38.4853882 -45.22419249 34.52486648 -41.28194809 30.55867386 C-38.23676165 27.49899628 -35.1820662 24.44895534 -32.12445831 21.40169525 C-30.66555854 19.94545357 -29.20959593 18.48626294 -27.75670624 17.02402496 C-25.72073197 14.97783108 -23.67226409 12.94499628 -21.62011719 10.91503906 C-21.02866409 10.31548904 -20.437211 9.71593903 -19.82783508 9.09822083 C-14.08483235 3.46906873 -8.24252828 -0.1504111 0 0 Z " fill="#000000" transform="translate(298.625,-0.4375)"/>
<path d="" fill="#000000" transform="translate(0,0)"/>
</svg>
