<?xml version="1.0" encoding="UTF-8"?>
<svg version="1.1" xmlns="http://www.w3.org/2000/svg" width="384" height="384">
<path d="M0 0 C2.44007926 0.00847502 4.87777908 -0.02030285 7.31762695 -0.05200195 C19.13110654 -0.10388523 33.28590529 0.36052064 43.77270508 6.44604492 C43.77270508 7.10604492 43.77270508 7.76604492 43.77270508 8.44604492 C44.65958008 8.56979492 45.54645508 8.69354492 46.46020508 8.82104492 C49.4765801 9.39017228 51.97596562 10.21218928 54.77270508 11.44604492 C54.77270508 12.10604492 54.77270508 12.76604492 54.77270508 13.44604492 C55.48813477 13.70385742 56.20356445 13.96166992 56.94067383 14.22729492 C59.94430619 15.51989257 62.4077588 17.07381582 65.08520508 18.94604492 C65.96821289 19.55448242 66.8512207 20.16291992 67.76098633 20.78979492 C68.42485352 21.33635742 69.0887207 21.88291992 69.77270508 22.44604492 C69.77270508 23.10604492 69.77270508 23.76604492 69.77270508 24.44604492 C70.53583008 24.71416992 71.29895508 24.98229492 72.08520508 25.25854492 C74.66259125 26.39738998 76.04225372 27.26021163 77.77270508 29.44604492 C77.77270508 30.10604492 77.77270508 30.76604492 77.77270508 31.44604492 C78.37083008 31.71416992 78.96895508 31.98229492 79.58520508 32.25854492 C82.51230023 33.84753943 84.28218317 35.46500111 85.77270508 38.44604492 C86.9656161 51.91536939 86.9656161 51.91536939 84.67895508 56.76635742 C81.37291737 60.2658335 77.50814405 61.71123543 72.77270508 62.44604492 C66.85604992 62.42346227 62.46024937 61.07371818 58.19458008 56.90307617 C57.01446501 55.69903986 55.83614588 54.49324124 54.65942383 53.28588867 C49.61930162 48.37098689 44.34996618 44.91251783 37.77270508 42.44604492 C37.77270508 41.78604492 37.77270508 41.12604492 37.77270508 40.44604492 C35.68597916 39.75046962 33.59830757 39.05765443 31.50708008 38.37573242 C29.68961386 37.75779391 27.88639658 37.0961863 26.10083008 36.39135742 C14.17728891 31.87885703 1.95655966 31.53832207 -10.49291992 33.97338867 C-13.13321451 34.42978245 -15.55457926 34.52895763 -18.22729492 34.44604492 C-18.22729492 35.10604492 -18.22729492 35.76604492 -18.22729492 36.44604492 C-18.87956055 36.61620117 -19.53182617 36.78635742 -20.20385742 36.96166992 C-25.58504243 38.45379792 -29.66614958 40.12884831 -34.22729492 43.44604492 C-35.16959961 43.89206055 -36.1119043 44.33807617 -37.08276367 44.79760742 C-40.3176439 46.49340799 -42.62065498 48.34225569 -45.28979492 50.82104492 C-46.15088867 51.62026367 -47.01198242 52.41948242 -47.89916992 53.24291992 C-48.66745117 53.96995117 -49.43573242 54.69698242 -50.22729492 55.44604492 C-51.15541992 56.31229492 -52.08354492 57.17854492 -53.03979492 58.07104492 C-54.88656257 60.07610694 -56.3726314 62.0255278 -57.91479492 64.25854492 C-58.67791992 65.31041992 -59.44104492 66.36229492 -60.22729492 67.44604492 C-60.88729492 67.44604492 -61.54729492 67.44604492 -62.22729492 67.44604492 C-62.45416992 68.27104492 -62.68104492 69.09604492 -62.91479492 69.94604492 C-64.24651022 73.49728572 -65.90861565 76.28801393 -68.00854492 79.41870117 C-69.36861649 81.68112791 -70.27110245 83.98961071 -71.22729492 86.44604492 C-70.01508774 86.43272125 -68.80288055 86.41939758 -67.55393982 86.40567017 C-56.12179644 86.28396214 -44.68978476 86.19405925 -33.25714016 86.13517189 C-27.37964788 86.10387911 -21.50267921 86.06144236 -15.62548828 85.9934082 C-9.95203071 85.92814457 -4.27907631 85.89232343 1.39472771 85.87678146 C3.55769712 85.86570786 5.72063944 85.84408321 7.88339424 85.81166458 C10.91684267 85.76800919 13.94822082 85.76211476 16.98193359 85.76489258 C17.87313904 85.74332092 18.76434448 85.72174927 19.68255615 85.69952393 C25.3854268 85.75590926 28.3192555 86.96624062 32.43002224 90.94997215 C35.80142611 94.70652983 37.77270508 98.41945959 37.77270508 103.50854492 C36.29398992 107.85227069 34.7388229 112.32254902 30.58520508 114.69604492 C29.98708008 114.94354492 29.38895508 115.19104492 28.77270508 115.44604492 C28.44270508 116.43604492 28.11270508 117.42604492 27.77270508 118.44604492 C24.97112204 119.51430798 22.2798199 119.56985726 19.30548096 119.56629944 C17.97200371 119.56836143 17.97200371 119.56836143 16.61158752 119.57046509 C15.64414108 119.56686981 14.67669464 119.56327454 13.67993164 119.55957031 C12.65522263 119.55971634 11.63051361 119.55986237 10.57475281 119.56001282 C7.18759037 119.55931613 3.80048291 119.55153507 0.41333008 119.54370117 C-1.93507863 119.54183613 -4.28348773 119.54041263 -6.63189697 119.53941345 C-12.81326369 119.53559508 -18.99460692 119.52577057 -25.17596436 119.51470947 C-31.48343589 119.50448076 -37.79091123 119.4999127 -44.09838867 119.49487305 C-56.47470274 119.48414772 -68.8509932 119.46655639 -81.22729492 119.44604492 C-81.22729492 129.01604492 -81.22729492 138.58604492 -81.22729492 148.44604492 C-76.41240479 148.42247925 -76.41240479 148.42247925 -71.50024414 148.3984375 C-60.8951814 148.34873033 -50.29011351 148.31559136 -39.68496513 148.29060841 C-33.25500197 148.27495195 -26.82515815 148.25371369 -20.39526367 148.21972656 C-14.19017488 148.18713294 -7.9852009 148.16919175 -1.78003311 148.16141319 C0.58744998 148.15586974 2.95492677 148.1450448 5.32236099 148.12885475 C8.63814123 148.10708092 11.9534469 148.10407805 15.26928711 148.10546875 C16.24824448 148.09468292 17.22720184 148.08389709 18.23582458 148.07278442 C23.49519777 148.09665688 27.25772125 148.43188651 31.77270508 151.44604492 C35.70845246 156.47505547 38.14129744 160.9956785 37.77270508 167.44604492 C37.11270508 167.44604492 36.45270508 167.44604492 35.77270508 167.44604492 C35.64895508 168.18854492 35.52520508 168.93104492 35.39770508 169.69604492 C34.37548318 174.19382127 33.68466739 175.80432815 29.7986908 178.53875732 C25.25291399 181.04326697 21.07508655 180.9823331 15.98193359 180.90014648 C15.02506149 180.90073059 14.06818939 180.9013147 13.08232117 180.9019165 C9.9383745 180.89914309 6.79539115 180.86808573 3.65161133 180.83666992 C1.46443703 180.82920491 -0.72274398 180.8235132 -2.90992737 180.81951904 C-8.65248239 180.80428336 -14.3946295 180.76501896 -20.13702393 180.72070312 C-26.00234459 180.67970606 -31.86773149 180.66149853 -37.7331543 180.64135742 C-49.23137989 180.59852303 -60.72930342 180.53029644 -72.22729492 180.44604492 C-70.98837229 182.98681898 -69.74265482 185.52387579 -68.49291992 188.05932617 C-68.14696777 188.77060669 -67.80101563 189.48188721 -67.44458008 190.21472168 C-64.33473088 196.50116277 -60.60431214 201.95638257 -56.22729492 207.44604492 C-55.60338867 208.27491211 -54.97948242 209.1037793 -54.33666992 209.95776367 C-52.01257783 212.69933157 -49.53293389 214.82807531 -46.72729492 217.07104492 C-45.78885742 217.82643555 -44.85041992 218.58182617 -43.88354492 219.36010742 C-39.75598415 222.60145661 -35.95320342 225.13131423 -31.22729492 227.44604492 C-30.05166992 228.21948242 -30.05166992 228.21948242 -28.85229492 229.00854492 C-25.38646423 230.90649983 -22.08299139 231.59648468 -18.22729492 232.44604492 C-18.22729492 233.10604492 -18.22729492 233.76604492 -18.22729492 234.44604492 C1.30222189 237.29409946 18.45043976 236.36918668 36.77270508 228.44604492 C37.10270508 227.78604492 37.43270508 227.12604492 37.77270508 226.44604492 C39.17169517 225.78242142 40.59313204 225.16593177 42.02270508 224.57104492 C47.64549253 221.89659588 51.65506942 218.13685196 55.95336914 213.72387695 C60.15062577 209.55446063 64.78603918 206.56486975 70.86962891 206.38354492 C76.32666528 206.87297666 79.65056383 208.83681973 83.88989258 212.05151367 C86.51000131 215.38372665 86.28719757 218.3934209 86.14770508 222.44604492 C86.14577148 223.51338867 86.14577148 223.51338867 86.14379883 224.60229492 C86.08105552 228.33900767 85.91326231 231.31870598 83.77270508 234.44604492 C80.34413365 237.44604492 80.34413365 237.44604492 77.77270508 237.44604492 C77.52520508 238.04416992 77.27770508 238.64229492 77.02270508 239.25854492 C75.59197983 241.76231411 74.20354687 242.9267688 71.77270508 244.44604492 C71.11270508 244.44604492 70.45270508 244.44604492 69.77270508 244.44604492 C69.55614258 245.02870117 69.33958008 245.61135742 69.11645508 246.21166992 C67.32725994 249.18672695 65.21536642 250.38398504 62.27270508 252.19604492 C60.80317383 253.11643555 60.80317383 253.11643555 59.30395508 254.05541992 C56.77270508 255.44604492 56.77270508 255.44604492 54.77270508 255.44604492 C54.77270508 256.10604492 54.77270508 256.76604492 54.77270508 257.44604492 C53.50430982 257.9521979 52.23287406 258.45073591 50.96020508 258.94604492 C49.89866211 259.36370117 49.89866211 259.36370117 48.81567383 259.78979492 C46.77270508 260.44604492 46.77270508 260.44604492 43.77270508 260.44604492 C43.77270508 261.10604492 43.77270508 261.76604492 43.77270508 262.44604492 C41.79502225 263.07572446 39.81546573 263.69951982 37.83520508 264.32104492 C36.73305664 264.6690918 35.6309082 265.01713867 34.49536133 265.37573242 C27.33162678 267.43540007 20.64433208 268.759266 13.17895508 268.78198242 C12.38855835 268.78863922 11.59816162 268.79529602 10.78381348 268.80215454 C9.11997778 268.81220799 7.45610236 268.81697385 5.79223633 268.81665039 C3.30584257 268.82098712 0.82128183 268.85728194 -1.66479492 268.89526367 C-13.44404274 268.97743767 -26.71721785 268.41584924 -37.22729492 262.44604492 C-37.22729492 261.78604492 -37.22729492 261.12604492 -37.22729492 260.44604492 C-38.11416992 260.32229492 -39.00104492 260.19854492 -39.91479492 260.07104492 C-42.93116995 259.50191756 -45.43055546 258.67990056 -48.22729492 257.44604492 C-48.22729492 256.78604492 -48.22729492 256.12604492 -48.22729492 255.44604492 C-48.96979492 255.15729492 -49.71229492 254.86854492 -50.47729492 254.57104492 C-52.79469289 253.62301848 -55.00646607 252.59758581 -57.22729492 251.44604492 C-57.22729492 250.78604492 -57.22729492 250.12604492 -57.22729492 249.44604492 C-57.90791992 249.23979492 -58.58854492 249.03354492 -59.28979492 248.82104492 C-65.21187438 246.04900773 -69.70904033 241.08320095 -74.22729492 236.44604492 C-75.0084668 235.6803418 -75.78963867 234.91463867 -76.59448242 234.12573242 C-83.03252224 227.57306875 -88.63558494 220.39544283 -93.22729492 212.44604492 C-94.09354492 211.00358398 -94.09354492 211.00358398 -94.97729492 209.53198242 C-98.10880449 204.27365595 -101.02987045 199.15934854 -103.22729492 193.44604492 C-103.4928418 192.76670898 -103.75838867 192.08737305 -104.03198242 191.38745117 C-105.30143659 188.09291536 -106.38933153 184.87759851 -107.22729492 181.44604492 C-108.52352783 181.43669922 -109.81976074 181.42735352 -111.15527344 181.41772461 C-115.98439348 181.37772204 -120.81288334 181.31193432 -125.64160156 181.23852539 C-127.72778196 181.2103753 -129.81406784 181.18913122 -131.90039062 181.17504883 C-134.90704107 181.1535369 -137.91243133 181.10684368 -140.91870117 181.05541992 C-141.84501846 181.05419128 -142.77133575 181.05296265 -143.72572327 181.05169678 C-149.72194862 180.91739483 -153.31311271 179.94275983 -158.22729492 176.44604492 C-161.75625514 171.89254787 -161.7908585 167.00462203 -161.64526367 161.43041992 C-161.02762381 157.02035587 -159.45206937 153.55138328 -156.22729492 150.44604492 C-151.67024225 148.03719296 -147.44446052 148.18641867 -142.42651367 148.25073242 C-141.5901387 148.25356232 -140.75376373 148.25639221 -139.89204407 148.25930786 C-137.23281266 148.27046172 -134.57392375 148.2955573 -131.91479492 148.32104492 C-130.10685709 148.33108093 -128.29891396 148.34020569 -126.4909668 148.34838867 C-122.0696118 148.37038533 -117.64851134 148.40488198 -113.22729492 148.44604492 C-113.55181641 147.35727051 -113.87633789 146.26849609 -114.21069336 145.14672852 C-115.18748542 141.59096146 -115.4954129 138.73993512 -115.47729492 135.07104492 C-115.4850293 133.51256836 -115.4850293 133.51256836 -115.49291992 131.92260742 C-115.16567439 127.63954086 -114.25534211 123.60858223 -113.22729492 119.44604492 C-114.82383911 119.46175537 -114.82383911 119.46175537 -116.45263672 119.4777832 C-120.41288878 119.51406568 -124.37312622 119.53697537 -128.33349609 119.5559082 C-130.04543532 119.565947 -131.75735747 119.57958087 -133.46923828 119.59692383 C-135.93420634 119.62126566 -138.39894707 119.6325493 -140.86401367 119.64135742 C-142.00648811 119.65684128 -142.00648811 119.65684128 -143.17204285 119.67263794 C-147.30812233 119.67350528 -150.50850082 119.30383489 -154.22729492 117.44604492 C-154.22729492 116.78604492 -154.22729492 116.12604492 -154.22729492 115.44604492 C-154.82541992 115.21916992 -155.42354492 114.99229492 -156.03979492 114.75854492 C-158.89157093 113.04747932 -159.74762104 111.41370546 -161.22729492 108.44604492 C-162.06027479 102.87033282 -161.92764388 97.95049824 -159.53979492 92.82104492 C-157.16213024 90.37911903 -155.48716697 89.35156494 -152.22729492 88.44604492 C-152.22729492 87.78604492 -152.22729492 87.12604492 -152.22729492 86.44604492 C-137.04729492 86.44604492 -121.86729492 86.44604492 -106.22729492 86.44604492 C-105.56729492 83.14604492 -104.90729492 79.84604492 -104.22729492 76.44604492 C-103.23729492 75.12604492 -102.24729492 73.80604492 -101.22729492 72.44604492 C-100.53914849 70.51268114 -99.8511664 68.5792583 -99.16479492 66.64526367 C-97.79032957 63.42099704 -95.85221715 60.69608964 -93.84838867 57.83276367 C-91.54410949 54.44019842 -89.54401547 50.88444653 -87.52416992 47.31713867 C-87.09620117 46.69967773 -86.66823242 46.0822168 -86.22729492 45.44604492 C-85.56729492 45.44604492 -84.90729492 45.44604492 -84.22729492 45.44604492 C-84.00041992 44.74479492 -83.77354492 44.04354492 -83.53979492 43.32104492 C-81.008883 37.77714261 -76.98377565 34.10487625 -72.22729492 30.44604492 C-71.58791992 29.80666992 -70.94854492 29.16729492 -70.28979492 28.50854492 C-66.3219 24.54065 -62.63032631 21.19408449 -57.22729492 19.44604492 C-57.22729492 18.78604492 -57.22729492 18.12604492 -57.22729492 17.44604492 C-50.47729492 13.44604492 -50.47729492 13.44604492 -48.22729492 13.44604492 C-48.22729492 12.78604492 -48.22729492 12.12604492 -48.22729492 11.44604492 C-46.95889967 10.93989195 -45.68746391 10.44135393 -44.41479492 9.94604492 C-43.70709961 9.66760742 -42.9994043 9.38916992 -42.27026367 9.10229492 C-40.22729492 8.44604492 -40.22729492 8.44604492 -37.22729492 8.44604492 C-37.22729492 7.78604492 -37.22729492 7.12604492 -37.22729492 6.44604492 C-24.95280953 1.39184506 -13.14821696 -0.06927682 0 0 Z " fill="#000000" transform="translate(161.227294921875,-0.446044921875)"/>
<path d="M0 0 C5.24166856 3.26167909 8.74783998 7.28288734 11.25390625 12.94140625 C11.96130491 17.00150866 11.93218482 20.98933279 11.8931427 25.1027832 C11.90149838 26.31426655 11.90985405 27.52574989 11.91846293 28.77394485 C11.93655852 32.11981899 11.93243988 35.46430858 11.91877735 38.81011319 C11.90948909 42.42424496 11.92907602 46.03823636 11.94509888 49.65232849 C11.96890901 55.90828639 11.97455517 62.16404731 11.96775246 68.42004395 C11.95794344 77.46504193 11.97570189 86.50982185 12.00011977 95.55478454 C12.03899348 110.23070103 12.05567137 124.90655507 12.05834961 139.58251953 C12.0609984 153.83613284 12.07412625 168.08967318 12.10131836 182.34326172 C12.10299174 183.22232363 12.10466512 184.10138553 12.1063892 185.00708568 C12.11484887 189.41722197 12.12351425 193.82735783 12.1322819 198.23749352 C12.2047155 234.80545353 12.24110995 271.37337916 12.25390625 307.94140625 C13.51666382 306.64722778 13.51666382 306.64722778 14.80493164 305.3269043 C17.9461209 302.11303657 21.10075792 298.91265299 24.25952148 295.71606445 C25.62192281 294.33361116 26.98070464 292.94758075 28.33569336 291.55786133 C30.28978177 289.55497452 32.25674673 287.56553162 34.2265625 285.578125 C34.8247731 284.95926926 35.4229837 284.34041351 36.0393219 283.70280457 C41.10980947 278.62967609 46.15086505 275.53142799 53.56640625 275.44140625 C60.28503866 275.65396271 66.25207476 277.787758 70.953125 282.7265625 C74.48434998 287.49219851 75.43694097 291.31659679 75.56640625 297.12890625 C75.62248047 298.75892578 75.62248047 298.75892578 75.6796875 300.421875 C74.7325895 308.25063921 70.22813028 313.55838641 64.77636719 318.93652344 C64.1351442 319.58475571 63.4939212 320.23298798 62.83326721 320.90086365 C60.72816476 323.02345345 58.60890902 325.13121093 56.48828125 327.23828125 C55.01042202 328.71883803 53.53315675 330.1999879 52.05645752 331.68170166 C48.96613465 334.7779071 45.86873086 337.86679989 42.76611328 340.95068359 C38.80049082 344.89351805 34.85309874 348.85403977 30.91085434 352.82023239 C27.8656679 355.87990997 24.81097245 358.92995091 21.75336456 361.977211 C20.29446479 363.43345268 18.83850218 364.89264331 17.38561249 366.35488129 C15.34963822 368.40107517 13.30117034 370.43390997 11.24902344 372.46386719 C10.3618438 373.36319221 10.3618438 373.36319221 9.45674133 374.28068542 C4.63686403 379.00501234 -0.38389859 382.45284929 -7.16015625 383.4375 C-8.21976562 383.41816406 -9.279375 383.39882813 -10.37109375 383.37890625 C-11.43585938 383.37761719 -12.500625 383.37632812 -13.59765625 383.375 C-26.53516996 381.59328285 -37.32193323 366.56701984 -46.234375 357.7265625 C-46.85885214 357.10740904 -47.48332928 356.48825558 -48.12672997 355.85033989 C-51.42301229 352.58055545 -54.71576636 349.30726035 -58.00610352 346.03149414 C-60.70982191 343.3411617 -63.42064698 340.65830998 -66.13793945 337.98168945 C-69.44805003 334.72107987 -72.7455429 331.44819351 -76.03453636 328.16628838 C-77.27930725 326.92818724 -78.52829443 325.69430875 -79.78173256 324.46498299 C-94.26519471 310.24472203 -94.26519471 310.24472203 -96.375 299.83984375 C-96.18866003 292.75892488 -95.04323875 287.44950602 -90.09765625 282.1875 C-85.39497947 277.92634091 -81.00973082 275.66589935 -74.55859375 275.50390625 C-73.69878906 275.46394531 -72.83898437 275.42398437 -71.953125 275.3828125 C-60.27752628 277.41644297 -52.95722856 286.13007738 -45.12109375 294.25390625 C-43.91524509 295.48488352 -42.70822209 296.71471157 -41.5 297.94335938 C-38.56832544 300.92963252 -35.65297593 303.93100263 -32.74609375 306.94140625 C-32.74587638 306.32734031 -32.74565901 305.71327438 -32.74543506 305.08060038 C-32.73191409 268.67195133 -32.6924079 232.26341641 -32.61923813 195.85483662 C-32.61047156 191.48151254 -32.60192172 187.10818805 -32.59350586 182.73486328 C-32.5918268 181.86422687 -32.59014773 180.99359046 -32.58841779 180.09657113 C-32.56176066 166.0062931 -32.55265363 151.91605574 -32.55005232 137.82575507 C-32.54699099 123.36375125 -32.52502344 108.90186489 -32.48556918 94.43991411 C-32.461825 85.51877434 -32.45276159 76.59786919 -32.46258064 67.67670219 C-32.46790354 61.5559919 -32.45483307 55.43549152 -32.42743085 49.31484099 C-32.41216872 45.78543563 -32.40488998 42.25650014 -32.41949654 38.7270813 C-32.43514595 34.8942465 -32.41199721 31.06218652 -32.3853302 27.22940063 C-32.39600346 26.12237215 -32.40667672 25.01534366 -32.41767341 23.87476885 C-32.32369593 16.62251059 -30.92486853 10.96519882 -26.74609375 4.94140625 C-19.6756836 -1.79792883 -9.14049583 -3.52357663 0 0 Z " fill="#000000" transform="translate(308.74609375,1.05859375)"/>
<path d="" fill="#000000" transform="translate(0,0)"/>
</svg>
