<?xml version="1.0" encoding="UTF-8"?>
<svg version="1.1" xmlns="http://www.w3.org/2000/svg" width="384" height="384">
<path d="M0 0 C0.98311157 -0.00570007 1.96622314 -0.01140015 2.97912598 -0.01727295 C5.06029186 -0.02670695 7.14147257 -0.03325057 9.22265625 -0.03710938 C12.36746263 -0.04675602 15.51159847 -0.07777046 18.65625 -0.109375 C29.2214994 -0.16498572 38.73404624 0.12497887 48.90625 3.203125 C50.2745378 3.53145333 51.64532722 3.84973133 53.01953125 4.15234375 C55.98177083 4.8359375 58.94401042 5.51953125 61.90625 6.203125 C61.90625 6.863125 61.90625 7.523125 61.90625 8.203125 C62.875625 8.285625 63.845 8.368125 64.84375 8.453125 C69.57744101 9.1030375 73.64609407 11.12617823 77.90625 13.203125 C77.90625 13.863125 77.90625 14.523125 77.90625 15.203125 C78.89625 15.326875 78.89625 15.326875 79.90625 15.453125 C83.89664163 16.45072291 87.29174643 18.27479183 90.90625 20.203125 C90.90625 20.863125 90.90625 21.523125 90.90625 22.203125 C92.22625 22.533125 93.54625 22.863125 94.90625 23.203125 C94.90625 23.863125 94.90625 24.523125 94.90625 25.203125 C96.88625 25.863125 98.86625 26.523125 100.90625 27.203125 C100.90625 27.863125 100.90625 28.523125 100.90625 29.203125 C101.463125 29.47125 102.02 29.739375 102.59375 30.015625 C107.53393213 32.55247528 110.46063167 34.81779258 113.90625 39.203125 C115.84765292 40.94936043 117.87416611 42.56016356 119.90625 44.203125 C121.78125 45.828125 121.78125 45.828125 122.90625 47.203125 C122.90625 48.193125 122.90625 49.183125 122.90625 50.203125 C123.89625 50.533125 124.88625 50.863125 125.90625 51.203125 C129.24698619 53.95431951 130.42778935 55.89697911 130.90625 60.203125 C131.56625 60.203125 132.22625 60.203125 132.90625 60.203125 C133.339375 61.1621875 133.339375 61.1621875 133.78125 62.140625 C134.73448451 64.35518579 134.73448451 64.35518579 136.90625 65.203125 C140.90625 71.55606618 140.90625 71.55606618 140.90625 75.203125 C141.56625 75.203125 142.22625 75.203125 142.90625 75.203125 C147.31399487 84.61314778 147.31399487 84.61314778 147.90625 89.203125 C148.56625 89.203125 149.22625 89.203125 149.90625 89.203125 C150.09960938 89.92757812 150.29296875 90.65203125 150.4921875 91.3984375 C152.08385486 97.33507247 152.08385486 97.33507247 153.90625 103.203125 C158.6223886 117.35154081 160.2877361 131.04759308 160.21875 145.890625 C160.21792419 146.64025513 160.21709839 147.38988525 160.21624756 148.16223145 C160.18271458 161.371401 159.27528122 173.62762449 154.90625 186.203125 C154.2172126 188.22343465 153.52970744 190.24426753 152.84375 192.265625 C152.50214844 193.26722656 152.16054688 194.26882812 151.80859375 195.30078125 C150.99150964 197.92889162 150.38805127 200.49609724 149.90625 203.203125 C149.24625 203.203125 148.58625 203.203125 147.90625 203.203125 C147.82375 203.8425 147.74125 204.481875 147.65625 205.140625 C146.61104628 209.40854017 144.76533174 213.23420167 142.90625 217.203125 C142.24625 217.203125 141.58625 217.203125 140.90625 217.203125 C140.81214844 217.74453125 140.71804688 218.2859375 140.62109375 218.84375 C139.69485747 221.90083588 138.1817144 224.26081505 136.46875 226.953125 C135.85128906 227.93796875 135.23382813 228.9228125 134.59765625 229.9375 C134.03949219 230.68515625 133.48132813 231.4328125 132.90625 232.203125 C132.24625 232.203125 131.58625 232.203125 130.90625 232.203125 C130.6175 232.986875 130.32875 233.770625 130.03125 234.578125 C128.90625 237.203125 128.90625 237.203125 126.90625 239.203125 C126.56751212 242.37350209 126.56751212 242.37350209 129.09375 244.578125 C130.021875 245.444375 130.95 246.310625 131.90625 247.203125 C136.79513889 251.86979167 136.79513889 251.86979167 137.90625 255.203125 C138.64875 255.47125 139.39125 255.739375 140.15625 256.015625 C143.22803539 257.34207778 144.62782188 259.01339879 146.65625 261.625 C149.32273919 264.99144261 152.5555744 267.8683892 155.65625 270.828125 C157.90625 273.203125 157.90625 273.203125 158.90625 276.203125 C160.21871245 276.90999454 161.55528169 277.57296087 162.90625 278.203125 C164.55371094 279.59179687 164.55371094 279.59179687 166.140625 281.171875 C166.71425781 281.74292969 167.28789062 282.31398438 167.87890625 282.90234375 C168.46542969 283.49660156 169.05195313 284.09085937 169.65625 284.703125 C170.25824219 285.29738281 170.86023438 285.89164062 171.48046875 286.50390625 C172.33318359 287.36048828 172.33318359 287.36048828 173.203125 288.234375 C173.72229492 288.75580078 174.24146484 289.27722656 174.77636719 289.81445312 C175.90625 291.203125 175.90625 291.203125 175.90625 293.203125 C177.22625 293.863125 178.54625 294.523125 179.90625 295.203125 C179.90625 295.863125 179.90625 296.523125 179.90625 297.203125 C180.7415625 297.5434375 180.7415625 297.5434375 181.59375 297.890625 C184.55316361 299.57029218 186.53033786 301.77064352 188.90625 304.203125 C189.96193923 305.04506974 191.02452262 305.87844111 192.09375 306.703125 C194.90625 309.203125 194.90625 309.203125 195.96875 311.890625 C196.4328125 313.0353125 196.4328125 313.0353125 196.90625 314.203125 C198.5697979 314.87753631 200.23691942 315.5431571 201.90625 316.203125 C203.19021853 317.6475896 204.47075701 319.09867777 205.65625 320.625 C208.32273919 323.99144261 211.5555744 326.8683892 214.65625 329.828125 C216.90625 332.203125 216.90625 332.203125 217.90625 335.203125 C218.64875 335.47125 219.39125 335.739375 220.15625 336.015625 C223.22803539 337.34207778 224.62782188 339.01339879 226.65625 341.625 C229.32273919 344.99144261 232.5555744 347.8683892 235.65625 350.828125 C237.90625 353.203125 237.90625 353.203125 238.90625 356.203125 C239.710625 356.491875 240.515 356.780625 241.34375 357.078125 C243.90625 358.203125 243.90625 358.203125 245.21875 360.828125 C245.445625 361.611875 245.6725 362.395625 245.90625 363.203125 C246.56625 363.203125 247.22625 363.203125 247.90625 363.203125 C250.04211678 366.40692517 250.13757175 367.22252467 250.03125 370.890625 C250.01320313 371.69886719 249.99515625 372.50710938 249.9765625 373.33984375 C249.94175781 374.26216797 249.94175781 374.26216797 249.90625 375.203125 C249.24625 375.203125 248.58625 375.203125 247.90625 375.203125 C247.90625 376.193125 247.90625 377.183125 247.90625 378.203125 C246.59375 379.890625 246.59375 379.890625 244.90625 381.203125 C243.91625 381.203125 242.92625 381.203125 241.90625 381.203125 C241.90625 381.863125 241.90625 382.523125 241.90625 383.203125 C240.4691691 383.25735447 239.03149538 383.29602223 237.59375 383.328125 C236.79324219 383.35132813 235.99273437 383.37453125 235.16796875 383.3984375 C232.90625 383.203125 232.90625 383.203125 229.90625 381.203125 C229.90625 380.543125 229.90625 379.883125 229.90625 379.203125 C228.58625 378.543125 227.26625 377.883125 225.90625 377.203125 C225.90625 376.543125 225.90625 375.883125 225.90625 375.203125 C225.0709375 374.8628125 225.0709375 374.8628125 224.21875 374.515625 C220.22186114 372.24712051 217.36658351 369.58412554 215.90625 365.203125 C215.101875 364.914375 214.2975 364.625625 213.46875 364.328125 C210.90625 363.203125 210.90625 363.203125 209.84375 360.703125 C209.3796875 359.465625 209.3796875 359.465625 208.90625 358.203125 C206.88889795 356.85902238 206.88889795 356.85902238 204.90625 356.203125 C204.90625 355.543125 204.90625 354.883125 204.90625 354.203125 C204.0709375 353.8628125 204.0709375 353.8628125 203.21875 353.515625 C199.22186114 351.24712051 196.36658351 348.58412554 194.90625 344.203125 C194.101875 343.914375 193.2975 343.625625 192.46875 343.328125 C189.12219161 341.85890424 189.21756359 340.48140897 187.90625 337.203125 C186.2427021 336.52871369 184.57558058 335.8630929 182.90625 335.203125 C181.62228147 333.7586604 180.34174299 332.30757223 179.15625 330.78125 C176.48976081 327.41480739 173.2569256 324.5378608 170.15625 321.578125 C167.90625 319.203125 167.90625 319.203125 166.90625 316.203125 C166.16375 315.935 165.42125 315.666875 164.65625 315.390625 C161.5828131 314.06345907 160.18259115 312.38946891 158.15234375 309.77734375 C155.79870114 306.80393318 152.99608082 304.24388761 150.2578125 301.62890625 C148.77238011 300.18880396 147.33557512 298.69893036 145.90625 297.203125 C145.90625 296.543125 145.90625 295.883125 145.90625 295.203125 C145.31295898 294.93435547 144.71966797 294.66558594 144.10839844 294.38867188 C141.90084967 293.20021768 140.44082118 291.99570111 138.671875 290.234375 C138.09824219 289.66332031 137.52460938 289.09226562 136.93359375 288.50390625 C136.34707031 287.90964844 135.76054687 287.31539063 135.15625 286.703125 C134.55425781 286.10886719 133.95226562 285.51460938 133.33203125 284.90234375 C132.47931641 284.04576172 132.47931641 284.04576172 131.609375 283.171875 C131.09020508 282.65044922 130.57103516 282.12902344 130.03613281 281.59179688 C128.90625 280.203125 128.90625 280.203125 128.90625 278.203125 C127.58625 277.543125 126.26625 276.883125 124.90625 276.203125 C124.90625 275.543125 124.90625 274.883125 124.90625 274.203125 C123.91625 273.873125 122.92625 273.543125 121.90625 273.203125 C121.90625 272.543125 121.90625 271.883125 121.90625 271.203125 C120.730625 270.8628125 120.730625 270.8628125 119.53125 270.515625 C116.2067853 268.85339265 116.24138542 267.54096356 114.90625 264.203125 C112.40177484 262.98442571 112.40177484 262.98442571 109.90625 262.203125 C109.57625 261.543125 109.24625 260.883125 108.90625 260.203125 C105.52167745 260.80751296 103.6062322 262.13313865 100.90625 264.203125 C100.24625 264.203125 99.58625 264.203125 98.90625 264.203125 C98.90625 264.863125 98.90625 265.523125 98.90625 266.203125 C97.58625 266.533125 96.26625 266.863125 94.90625 267.203125 C94.90625 267.863125 94.90625 268.523125 94.90625 269.203125 C93.45087432 270.04161304 91.99184627 270.87376434 90.53125 271.703125 C89.71914062 272.1671875 88.90703125 272.63125 88.0703125 273.109375 C85.90625 274.203125 85.90625 274.203125 83.90625 274.203125 C83.90625 274.863125 83.90625 275.523125 83.90625 276.203125 C81.97157058 277.04298584 80.03339871 277.87480527 78.09375 278.703125 C77.01480469 279.1671875 75.93585938 279.63125 74.82421875 280.109375 C71.90625 281.203125 71.90625 281.203125 68.90625 281.203125 C68.90625 281.863125 68.90625 282.523125 68.90625 283.203125 C67.80216797 283.49316406 67.80216797 283.49316406 66.67578125 283.7890625 C65.69996094 284.04945313 64.72414062 284.30984375 63.71875 284.578125 C62.75582031 284.83335937 61.79289063 285.08859375 60.80078125 285.3515625 C57.93974648 286.14359175 57.93974648 286.14359175 55.390625 287.2109375 C52.73418156 288.27184416 50.11808475 289.00859766 47.34375 289.703125 C46.41433594 289.9403125 45.48492187 290.1775 44.52734375 290.421875 C34.03846289 292.68484822 24.01749057 293.56914943 13.28125 293.515625 C12.23025116 293.51438629 12.23025116 293.51438629 11.15802002 293.51312256 C-1.99174257 293.47749244 -14.60098906 292.60418086 -27.09375 288.203125 C-32.39785458 286.40816575 -37.69597119 284.69612765 -43.09375 283.203125 C-43.09375 282.543125 -43.09375 281.883125 -43.09375 281.203125 C-43.898125 281.120625 -44.7025 281.038125 -45.53125 280.953125 C-50.05309205 280.00115825 -53.94077701 278.18732321 -58.09375 276.203125 C-58.09375 275.543125 -58.09375 274.883125 -58.09375 274.203125 C-58.795 273.935 -59.49625 273.666875 -60.21875 273.390625 C-63.2587324 272.1349801 -66.1665274 270.70077377 -69.09375 269.203125 C-69.09375 268.543125 -69.09375 267.883125 -69.09375 267.203125 C-70.41375 266.873125 -71.73375 266.543125 -73.09375 266.203125 C-73.09375 265.543125 -73.09375 264.883125 -73.09375 264.203125 C-74.455 263.8628125 -74.455 263.8628125 -75.84375 263.515625 C-79.59605342 262.0002717 -80.70755084 260.38472388 -83.09375 257.203125 C-83.75375 256.873125 -84.41375 256.543125 -85.09375 256.203125 C-87.88616631 254.80691685 -89.16523138 252.64213385 -91.09375 250.203125 C-92.08375 249.39875 -93.07375 248.594375 -94.09375 247.765625 C-97.16462141 245.14258901 -98.9531738 242.59852173 -101.09375 239.203125 C-101.67125 238.625625 -102.24875 238.048125 -102.84375 237.453125 C-103.25625 237.040625 -103.66875 236.628125 -104.09375 236.203125 C-104.09375 235.543125 -104.09375 234.883125 -104.09375 234.203125 C-104.75375 233.873125 -105.41375 233.543125 -106.09375 233.203125 C-106.75375 232.543125 -107.41375 231.883125 -108.09375 231.203125 C-108.09375 230.213125 -108.09375 229.223125 -108.09375 228.203125 C-109.08375 227.873125 -110.07375 227.543125 -111.09375 227.203125 C-111.09375 226.213125 -111.09375 225.223125 -111.09375 224.203125 C-111.75375 224.203125 -112.41375 224.203125 -113.09375 224.203125 C-114.5543785 221.55573584 -115.09375 220.30864166 -115.09375 217.203125 C-115.75375 217.203125 -116.41375 217.203125 -117.09375 217.203125 C-117.42375 215.223125 -117.75375 213.243125 -118.09375 211.203125 C-118.75375 211.203125 -119.41375 211.203125 -120.09375 211.203125 C-121.0542772 208.82899174 -122.01222353 206.45386981 -122.96875 204.078125 C-123.37287109 203.08039063 -123.37287109 203.08039063 -123.78515625 202.0625 C-126.41208855 195.527205 -128.47749015 188.97694361 -130.15625 182.140625 C-130.41631836 181.09938477 -130.41631836 181.09938477 -130.68164062 180.03710938 C-131.16300352 178.09505907 -131.62886873 176.14918641 -132.09375 174.203125 C-132.27317139 173.50840088 -132.45259277 172.81367676 -132.63745117 172.09790039 C-133.31898808 167.77420691 -133.27710496 163.48033321 -133.296875 159.109375 C-133.30257507 158.12626343 -133.30827515 157.14315186 -133.31414795 156.13024902 C-133.32358195 154.04908314 -133.33012557 151.96790243 -133.33398438 149.88671875 C-133.34363102 146.74191237 -133.37464546 143.59777653 -133.40625 140.453125 C-133.46171399 129.85502649 -133.08139987 120.41962744 -130.09375 110.203125 C-129.64144913 108.03949966 -129.20255498 105.87299892 -128.78125 103.703125 C-127.41301947 97.68876407 -125.11269478 92.40585344 -122.3984375 86.8828125 C-121.02011657 84.20050657 -121.02011657 84.20050657 -120.09375 81.203125 C-119.43375 81.203125 -118.77375 81.203125 -118.09375 81.203125 C-117.76375 79.223125 -117.43375 77.243125 -117.09375 75.203125 C-116.43375 75.203125 -115.77375 75.203125 -115.09375 75.203125 C-114.98933594 74.64753906 -114.88492188 74.09195313 -114.77734375 73.51953125 C-113.95665554 70.73857064 -112.67752532 68.6066532 -111.15625 66.140625 C-110.36927734 64.85478516 -110.36927734 64.85478516 -109.56640625 63.54296875 C-108.43543492 61.74601431 -107.27151077 59.96976616 -106.09375 58.203125 C-105.43375 58.203125 -104.77375 58.203125 -104.09375 58.203125 C-104.01125 57.625625 -103.92875 57.048125 -103.84375 56.453125 C-102.86378812 53.51323935 -101.3493635 52.33681344 -99.09375 50.203125 C-97.52849329 48.34963688 -95.98895178 46.47803704 -94.4609375 44.59375 C-93.78417969 43.90539063 -93.78417969 43.90539063 -93.09375 43.203125 C-92.43375 43.203125 -91.77375 43.203125 -91.09375 43.203125 C-90.76375 42.213125 -90.43375 41.223125 -90.09375 40.203125 C-88.46114286 38.82829793 -86.79149938 37.49664833 -85.09375 36.203125 C-84.59875 35.708125 -84.10375 35.213125 -83.59375 34.703125 C-81.56049571 32.66987071 -79.39997952 30.91801361 -77.09375 29.203125 C-76.43375 29.203125 -75.77375 29.203125 -75.09375 29.203125 C-75.09375 28.543125 -75.09375 27.883125 -75.09375 27.203125 C-73.4140625 25.9140625 -73.4140625 25.9140625 -71.21875 24.578125 C-70.49945313 24.13210937 -69.78015625 23.68609375 -69.0390625 23.2265625 C-67.09375 22.203125 -67.09375 22.203125 -65.09375 22.203125 C-65.09375 21.543125 -65.09375 20.883125 -65.09375 20.203125 C-62.78375 19.543125 -60.47375 18.883125 -58.09375 18.203125 C-58.09375 17.543125 -58.09375 16.883125 -58.09375 16.203125 C-55.86490855 15.24402949 -53.63569032 14.28582663 -51.40625 13.328125 C-50.78041016 13.05871094 -50.15457031 12.78929687 -49.50976562 12.51171875 C-47.70642769 11.73751084 -45.90013637 10.97019336 -44.09375 10.203125 C-43.17980469 9.80867187 -42.26585938 9.41421875 -41.32421875 9.0078125 C-39.09375 8.203125 -39.09375 8.203125 -36.09375 8.203125 C-36.09375 7.543125 -36.09375 6.883125 -36.09375 6.203125 C-32.69827426 5.38912573 -29.30230803 4.5771912 -25.90625 3.765625 C-24.94654297 3.53552734 -23.98683594 3.30542969 -22.99804688 3.06835938 C-21.60102539 2.73481445 -21.60102539 2.73481445 -20.17578125 2.39453125 C-19.32218018 2.19029541 -18.4685791 1.98605957 -17.58911133 1.77563477 C-16.76564209 1.58670654 -15.94217285 1.39777832 -15.09375 1.203125 C-14.3721167 1.0177417 -13.6504834 0.8323584 -12.90698242 0.64135742 C-8.61322491 -0.0275044 -4.33949237 0.01962771 0 0 Z M8.90625 23.203125 C8.90625 23.533125 8.90625 23.863125 8.90625 24.203125 C8.2356958 24.25847412 7.5651416 24.31382324 6.87426758 24.37084961 C3.82217263 24.62446511 0.77046686 24.88250138 -2.28125 25.140625 C-3.33634766 25.22763672 -4.39144531 25.31464844 -5.47851562 25.40429688 C-6.50009766 25.49130859 -7.52167969 25.57832031 -8.57421875 25.66796875 C-9.51160889 25.746521 -10.44899902 25.82507324 -11.41479492 25.90600586 C-14.01940835 26.19487987 -16.53372744 26.64889331 -19.09375 27.203125 C-19.09375 27.863125 -19.09375 28.523125 -19.09375 29.203125 C-23.54875 29.698125 -23.54875 29.698125 -28.09375 30.203125 C-28.09375 30.863125 -28.09375 31.523125 -28.09375 32.203125 C-29.3725 32.3475 -30.65125 32.491875 -31.96875 32.640625 C-34.35067894 32.90955246 -35.93827691 33.12538846 -38.09375 34.203125 C-38.09375 34.863125 -38.09375 35.523125 -38.09375 36.203125 C-40.07375 36.533125 -42.05375 36.863125 -44.09375 37.203125 C-44.09375 37.863125 -44.09375 38.523125 -44.09375 39.203125 C-44.774375 39.285625 -45.455 39.368125 -46.15625 39.453125 C-49.9684407 40.42645028 -52.73445329 42.16119955 -56.09375 44.203125 C-56.09375 44.863125 -56.09375 45.523125 -56.09375 46.203125 C-56.83625 46.47125 -57.57875 46.739375 -58.34375 47.015625 C-60.98436949 48.15589251 -62.94927844 49.29692806 -65.09375 51.203125 C-65.09375 51.863125 -65.09375 52.523125 -65.09375 53.203125 C-65.96 53.326875 -65.96 53.326875 -66.84375 53.453125 C-69.7476836 54.42110287 -71.13115604 55.89006784 -73.09375 58.203125 C-73.09375 58.863125 -73.09375 59.523125 -73.09375 60.203125 C-74.08375 60.533125 -75.07375 60.863125 -76.09375 61.203125 C-78.50370366 63.83853518 -78.50370366 63.83853518 -79.09375 67.203125 C-79.96773437 67.54537109 -79.96773437 67.54537109 -80.859375 67.89453125 C-83.69178743 69.55337419 -84.99045633 71.44384511 -86.84375 74.140625 C-87.76414062 75.45353516 -87.76414062 75.45353516 -88.703125 76.79296875 C-90.34363148 79.17244458 -90.34363148 79.17244458 -90.09375 82.203125 C-91.57875 82.698125 -91.57875 82.698125 -93.09375 83.203125 C-94.33721828 85.18886702 -94.33721828 85.18886702 -95.28125 87.578125 C-95.62542969 88.36960937 -95.96960938 89.16109375 -96.32421875 89.9765625 C-97.25707746 92.28306473 -97.25707746 92.28306473 -97.09375 95.203125 C-97.75375 95.203125 -98.41375 95.203125 -99.09375 95.203125 C-100.08375 100.153125 -100.08375 100.153125 -101.09375 105.203125 C-101.75375 105.203125 -102.41375 105.203125 -103.09375 105.203125 C-103.42375 108.173125 -103.75375 111.143125 -104.09375 114.203125 C-104.75375 114.203125 -105.41375 114.203125 -106.09375 114.203125 C-107.71595942 123.54264135 -108.5968558 132.74905906 -109.09375 142.203125 C-109.42375 142.203125 -109.75375 142.203125 -110.09375 142.203125 C-110.09375 144.843125 -110.09375 147.483125 -110.09375 150.203125 C-109.76375 150.203125 -109.43375 150.203125 -109.09375 150.203125 C-109.03429199 151.0849646 -109.03429199 151.0849646 -108.97363281 151.98461914 C-108.11456337 164.15279193 -106.83085898 175.55640673 -103.09375 187.203125 C-102.43375 187.203125 -101.77375 187.203125 -101.09375 187.203125 C-100.43375 190.503125 -99.77375 193.803125 -99.09375 197.203125 C-98.43375 197.203125 -97.77375 197.203125 -97.09375 197.203125 C-97.01125 198.04875 -96.92875 198.894375 -96.84375 199.765625 C-95.93641147 203.92425991 -94.32833727 206.59895199 -92.09375 210.203125 C-91.43375 210.203125 -90.77375 210.203125 -90.09375 210.203125 C-90.00996094 210.74453125 -89.92617187 211.2859375 -89.83984375 211.84375 C-88.83524281 215.02060323 -87.11952067 217.26916003 -85.15625 219.953125 C-84.44597656 220.93796875 -83.73570313 221.9228125 -83.00390625 222.9375 C-82.05837891 224.05898438 -82.05837891 224.05898438 -81.09375 225.203125 C-80.43375 225.203125 -79.77375 225.203125 -79.09375 225.203125 C-78.866875 225.739375 -78.64 226.275625 -78.40625 226.828125 C-76.34457754 230.5587704 -74.07082485 234.5990188 -69.84375 235.890625 C-68.9775 236.0453125 -68.9775 236.0453125 -68.09375 236.203125 C-67.76375 237.193125 -67.43375 238.183125 -67.09375 239.203125 C-66.43375 239.203125 -65.77375 239.203125 -65.09375 239.203125 C-64.76375 240.193125 -64.43375 241.183125 -64.09375 242.203125 C-62.07866642 242.93636296 -62.07866642 242.93636296 -60.09375 243.203125 C-60.09375 243.863125 -60.09375 244.523125 -60.09375 245.203125 C-58.41167068 246.57131981 -58.41167068 246.57131981 -56.28125 247.828125 C-55.21970703 248.49714844 -55.21970703 248.49714844 -54.13671875 249.1796875 C-52.02753793 250.42707364 -52.02753793 250.42707364 -49.09375 250.203125 C-49.09375 250.863125 -49.09375 251.523125 -49.09375 252.203125 C-47.44375 252.533125 -45.79375 252.863125 -44.09375 253.203125 C-44.09375 253.863125 -44.09375 254.523125 -44.09375 255.203125 C-40.72277617 256.70133559 -38.88932881 257.203125 -35.09375 257.203125 C-35.09375 257.863125 -35.09375 258.523125 -35.09375 259.203125 C-32.78375 259.533125 -30.47375 259.863125 -28.09375 260.203125 C-28.09375 260.863125 -28.09375 261.523125 -28.09375 262.203125 C-23.47375 263.193125 -18.85375 264.183125 -14.09375 265.203125 C-14.09375 265.533125 -14.09375 265.863125 -14.09375 266.203125 C4.17130606 267.96369022 21.6968163 268.61866212 39.90625 266.203125 C39.90625 265.543125 39.90625 264.883125 39.90625 264.203125 C40.58171875 264.14253906 41.2571875 264.08195313 41.953125 264.01953125 C42.84515625 263.93574219 43.7371875 263.85195313 44.65625 263.765625 C45.53796875 263.68441406 46.4196875 263.60320312 47.328125 263.51953125 C49.59975452 263.24074035 51.70476823 262.81521923 53.90625 262.203125 C53.90625 261.543125 53.90625 260.883125 53.90625 260.203125 C56.21625 259.873125 58.52625 259.543125 60.90625 259.203125 C60.90625 258.543125 60.90625 257.883125 60.90625 257.203125 C62.02 257.05875 63.13375 256.914375 64.28125 256.765625 C67.72767047 256.41940465 67.72767047 256.41940465 69.90625 255.203125 C69.90625 254.543125 69.90625 253.883125 69.90625 253.203125 C71.55625 252.873125 73.20625 252.543125 74.90625 252.203125 C74.90625 251.543125 74.90625 250.883125 74.90625 250.203125 C75.6075 250.120625 76.30875 250.038125 77.03125 249.953125 C82.38819857 248.55566016 86.79835828 244.82773535 90.90625 241.203125 C90.90625 240.543125 90.90625 239.883125 90.90625 239.203125 C91.89625 238.873125 92.88625 238.543125 93.90625 238.203125 C93.90625 237.543125 93.90625 236.883125 93.90625 236.203125 C94.49921875 236.10902344 95.0921875 236.01492187 95.703125 235.91796875 C98.41958463 235.0365643 99.34322247 233.95269947 101.15625 231.765625 C101.754375 231.05019531 102.3525 230.33476562 102.96875 229.59765625 C103.608125 228.80746094 104.2475 228.01726562 104.90625 227.203125 C105.6075 226.34074219 106.30875 225.47835937 107.03125 224.58984375 C109.00585296 222.13973897 110.96733922 219.68155879 112.90625 217.203125 C113.47859375 216.50703125 114.0509375 215.8109375 114.640625 215.09375 C116.18439202 213.16681917 116.18439202 213.16681917 115.90625 210.203125 C116.56625 209.873125 117.22625 209.543125 117.90625 209.203125 C120.1836001 206.38802507 120.1836001 206.38802507 119.90625 203.203125 C120.56625 203.203125 121.22625 203.203125 121.90625 203.203125 C122.56625 200.233125 123.22625 197.263125 123.90625 194.203125 C124.56625 194.203125 125.22625 194.203125 125.90625 194.203125 C126.23625 191.893125 126.56625 189.583125 126.90625 187.203125 C127.56625 187.203125 128.22625 187.203125 128.90625 187.203125 C129.21369141 185.70458984 129.21369141 185.70458984 129.52734375 184.17578125 C129.93146484 182.24025391 129.93146484 182.24025391 130.34375 180.265625 C130.61058594 178.97785156 130.87742187 177.69007813 131.15234375 176.36328125 C131.90625 173.203125 131.90625 173.203125 132.90625 172.203125 C133.87594123 166.92663773 134.05308145 161.80738701 134.0390625 156.453125 C134.04001923 155.63618164 134.04097595 154.81923828 134.04196167 153.97753906 C134.04263857 152.25976484 134.04081865 150.54198798 134.03662109 148.82421875 C134.03126589 146.21087846 134.03658278 143.59771001 134.04296875 140.984375 C134.04230788 139.30729129 134.04102654 137.63020769 134.0390625 135.953125 C134.04209885 134.79345215 134.04209885 134.79345215 134.04519653 133.61035156 C134.01610846 126.80318408 133.22331692 120.63942199 130.90625 114.203125 C129.36321368 109.75652571 127.90160356 105.35521014 126.84375 100.765625 C126.22041958 97.18138057 126.22041958 97.18138057 123.90625 95.203125 C123.19216666 93.21956017 122.52007258 91.21997063 121.90625 89.203125 C121.24625 89.203125 120.58625 89.203125 119.90625 89.203125 C119.85210937 88.54828125 119.79796875 87.8934375 119.7421875 87.21875 C118.53551914 82.86572208 116.10618143 79.62405288 113.53125 75.953125 C112.78875 74.85484375 112.78875 74.85484375 112.03125 73.734375 C109.28542887 69.46714419 109.28542887 69.46714419 104.90625 67.203125 C104.20230388 65.88909224 103.54279342 64.5510993 102.90625 63.203125 C100.00598432 59.16346923 96.83959732 56.19588926 92.90625 53.203125 C92.24625 53.203125 91.58625 53.203125 90.90625 53.203125 C90.90625 52.543125 90.90625 51.883125 90.90625 51.203125 C88.9543831 49.68277904 88.9543831 49.68277904 86.53125 48.203125 C84.05672838 46.63200016 81.98241959 45.27929459 79.90625 43.203125 C78.91625 43.203125 77.92625 43.203125 76.90625 43.203125 C76.90625 42.543125 76.90625 41.883125 76.90625 41.203125 C74.25886084 39.7424965 73.01176666 39.203125 69.90625 39.203125 C69.90625 38.543125 69.90625 37.883125 69.90625 37.203125 C67.92625 36.873125 65.94625 36.543125 63.90625 36.203125 C63.90625 35.543125 63.90625 34.883125 63.90625 34.203125 C60.28651598 32.88685808 57.81057869 32.203125 53.90625 32.203125 C53.90625 31.543125 53.90625 30.883125 53.90625 30.203125 C50.93625 29.873125 47.96625 29.543125 44.90625 29.203125 C44.90625 28.543125 44.90625 27.883125 44.90625 27.203125 C35.56673365 25.58091558 26.36031594 24.7000192 16.90625 24.203125 C16.90625 23.873125 16.90625 23.543125 16.90625 23.203125 C14.26625 23.203125 11.62625 23.203125 8.90625 23.203125 Z " fill="#000000" transform="translate(134.09375,0.796875)"/>
</svg>
